<svg width="311" height="276" viewBox="0 0 311 276" fill="none" xmlns="http://www.w3.org/2000/svg">
<path d="M156.415 268.868C148.328 268.735 140.248 268.768 132.039 269.976C112.058 272.916 90.5002 271.377 71.0728 266.032C46.8377 259.366 38.533 236.236 28.5084 215.355C19.4326 196.453 7.75537 178.221 3.17847 157.51C-0.660881 140.144 -2.88433 113.375 7.7489 98.0223C14.7464 87.9198 25.9828 84.9675 37.3948 81.4833C49.398 77.8205 60.0421 74.513 66.9193 63.9306C73.9287 53.1436 66.354 40.9898 72.3042 30.2602C88.945 0.262325 139.411 1.915 168.13 0.174587C183.409 -0.751408 195.884 2.18362 210.549 4.78183C235.518 9.20492 262.631 17.2811 278.309 38.4284C288.582 52.2858 281.503 68.1718 286.859 83.8757C289.015 90.2017 293.103 96.2148 296.639 102.03C301.685 110.323 307.067 115.494 309.1 125.378C311.202 135.598 311.563 146.215 310.169 156.555C308.53 168.707 303.278 179.8 299.029 191.444C295.003 202.477 290.992 213.593 284.488 223.34C270.9 243.702 249.475 253.786 227.924 259.185C211.318 263.346 196.326 267.906 179.084 268.838C171.452 269.252 163.931 268.989 156.415 268.868Z" fill="#D3F2FF"/>
<path d="M138.29 127.213C138.29 127.213 139.321 138.844 142.584 144.255C145.848 149.668 159.121 153.413 170.582 159.78C182.043 166.146 145.751 190.979 110.733 185.885C75.7157 180.79 76.9883 164.874 76.9883 164.874L108.602 145.211C108.602 145.211 117.737 136.859 117.1 125.398C116.464 113.936 131.922 120.846 138.29 127.213Z" fill="#ECB49F"/>
<path d="M120.187 136.149C118.947 135.106 117.847 133.714 116.87 132.079L116.861 131.844C116.817 131.04 116.85 130.244 116.954 129.463C119.207 132.084 121.958 133.78 125.313 133.91C125.558 133.918 125.801 133.924 126.039 133.924C131.698 133.924 135.58 131.297 138.283 127.234C137.428 129.631 136.367 131.77 135.039 133.509L120.187 136.149Z" fill="#DA7F63"/>
<path d="M106.93 94.5133C106.93 94.5133 108.76 133.273 125.313 133.91C141.868 134.547 143.794 113.461 144.876 98.1003C146.087 80.905 144.628 75.688 125.313 74.697C106.69 73.7418 106.93 94.5133 106.93 94.5133Z" fill="#ECB49F"/>
<path d="M143.662 90.4551C143.772 90.4952 143.886 90.5364 143.995 90.5786C148.465 92.2952 149.866 98.8465 147.55 103.074C147.3 103.527 145.648 104.944 145.645 105.258C145.634 106.219 147.443 106.113 147.206 107.645C146.865 109.858 146.522 112.769 144.44 111.953C142.831 111.325 141.263 110.323 141.033 108.82C140.557 105.669 143.05 98.3256 139.141 98.6375C137.136 98.7978 124.384 98.2454 124.384 98.2454C124.384 98.2454 122.707 100.326 118.438 102.81C114.169 105.295 111.52 102.946 111.52 102.946C111.52 102.946 110.141 110.753 108.281 111.035C106.961 111.234 105.13 111.446 104.609 109.865C104.041 108.141 104.802 107.44 105.931 106.365C104.951 107.298 103.98 104.383 103.983 103.882C103.994 102.418 106.436 94.8447 106.979 93.5461C108.571 89.7436 109.907 95.1901 113.47 94.0335C117.39 92.7598 121.332 91.7277 125.405 90.9555C131.028 89.8876 138.133 88.4948 143.662 90.4551Z" fill="#2E3054"/>
<path d="M139.434 134.839C139.291 134.137 139.163 133.45 139.05 132.796L140.08 132.613C140.08 132.613 139.959 133.553 139.434 134.839Z" fill="#CACCB6"/>
<path d="M127.175 142.024C117.522 142.024 115.307 137.465 115.125 137.049L120.187 136.149C121.648 137.379 123.303 138.123 125.178 138.207C125.389 138.216 125.598 138.221 125.803 138.221C129.828 138.221 132.81 136.427 135.039 133.509L139.05 132.796C139.163 133.451 139.291 134.137 139.434 134.839C138.325 137.555 135.414 141.813 128.037 142.013C127.744 142.021 127.457 142.024 127.175 142.024Z" fill="#E29871"/>
<path d="M125.803 138.221C125.598 138.221 125.389 138.216 125.178 138.207C123.303 138.123 121.648 137.379 120.187 136.149L135.039 133.509C132.81 136.427 129.828 138.221 125.803 138.221Z" fill="#D16B47"/>
<path d="M113.645 137.313L114.473 137.147C114.47 137.153 114.467 137.16 114.463 137.166L113.645 137.313Z" fill="#CACCB6"/>
<path d="M114.463 137.166C114.467 137.16 114.47 137.153 114.473 137.147L115.112 137.019C115.112 137.019 115.116 137.029 115.125 137.049L114.463 137.166Z" fill="#E29871"/>
<path d="M127.842 117.829C127.842 117.829 116.719 113.375 109.556 116.719C109.556 116.719 106.69 141.073 125.313 141.073C146.808 141.073 143.507 116.654 143.507 116.654C143.507 116.654 136.915 113.531 127.842 117.829Z" fill="#2E3054"/>
<path d="M119.535 120.397C119.535 120.397 127.541 125.122 135.88 120.171C135.88 120.171 128.091 136.609 119.535 120.397Z" fill="white"/>
<path d="M173.665 165.609C173.665 165.609 197.946 198.507 201.08 220.831C204.604 221.615 225.159 186.448 225.159 186.448L235.544 193.025C235.544 193.025 206.17 249.814 195.596 251.38C186.932 252.663 158.391 207.907 158.391 207.907C158.391 207.907 169.358 166.392 173.665 165.609Z" fill="#ECB49F"/>
<path d="M245.966 185.333C245.779 185.333 245.595 185.251 245.471 185.096C245.269 184.849 245.282 184.492 245.494 184.259L259.223 169.33C259.305 169.239 261.249 167.187 264.496 167.187C265.315 167.187 266.155 167.321 266.989 167.586C267.206 167.654 267.37 167.833 267.42 168.055C267.472 168.275 267.402 168.507 267.235 168.662L255.392 179.821L255.279 179.905L246.295 185.243C246.193 185.304 246.08 185.333 245.966 185.333Z" fill="#E7A588"/>
<path d="M224.193 201.462L246.626 184.797L255.742 175.434L263.199 165.067C262.692 164.874 261.957 164.663 261.145 164.663C259.737 164.663 258.557 165.296 257.639 166.543C254.878 170.294 250.039 175.237 249.605 175.677C249.218 176.162 244.817 180.287 240.813 180.287C239.917 180.287 239.091 180.034 238.369 179.52C236.216 177.989 236.476 175.062 237.39 172.404C237.749 171.357 238.24 171.383 238.339 170.384C238.502 168.695 237.822 166.501 237.106 165.714C236.535 165.085 235.683 164.76 234.573 164.749C234.473 164.993 234.275 165.778 234.475 167.979C234.839 171.987 232.712 176.37 230.533 178.131C230.16 178.431 229.694 178.728 229.203 179.042C227.017 180.439 224.295 182.177 225.159 186.448C225.215 186.726 225.081 187.008 224.831 187.141L224.193 201.462Z" fill="#ECB49F"/>
<path d="M99.1732 169.592C101.349 158.538 99.7634 144.154 96.8436 132.686C94.8713 124.93 88.4533 104.893 78.4937 103.584C67.3266 102.117 66.9475 124.598 68.5797 132.058C70.9742 143.006 76.6937 151.871 83.101 161.021C89.1746 169.691 93.8945 179.448 99.9064 187.736L99.1732 169.592Z" fill="#ABDBE6"/>
<path d="M165.245 199.974C167.601 199.927 170.037 199.877 172.453 199.74C176.528 199.508 179.908 199.054 183.091 198.311L184.084 198.086C187.946 197.217 195.135 195.601 196.418 191.898C196.856 190.629 195.654 187.478 193.79 185.013C192.43 183.213 191.072 182.244 190.375 182.74L189.818 181.956C199.026 175.409 205.615 166.218 208.37 156.076L208.535 155.475C209.695 151.248 210.391 148.697 207.493 144.73C205.919 142.578 204.491 141.571 203.121 141.648C201.251 141.755 199.461 143.867 197.57 146.102C196.922 146.868 196.252 147.66 195.551 148.408C193.37 150.732 191.262 153.203 189.225 155.591C187.059 158.127 184.823 160.749 182.486 163.211C178.566 167.345 174.728 171.854 171.021 176.213C163.108 185.514 154.946 195.105 145.039 202.269C149.953 200.839 154.484 200.41 158.05 200.208C160.46 200.07 162.892 200.021 165.245 199.974ZM141.708 203.393C152.789 196.159 161.685 185.703 170.288 175.59C174.005 171.22 177.849 166.702 181.788 162.549C184.107 160.104 186.337 157.493 188.492 154.966C190.537 152.569 192.653 150.09 194.848 147.749C195.534 147.02 196.196 146.238 196.835 145.482C198.865 143.083 200.783 140.818 203.066 140.688C204.787 140.59 206.49 141.727 208.268 144.163C211.442 148.505 210.612 151.535 209.463 155.727L209.299 156.328C206.612 166.22 200.36 175.221 191.622 181.825C192.796 182.291 193.917 183.584 194.558 184.433C196.374 186.835 197.962 190.378 197.326 192.213C195.869 196.421 188.339 198.115 184.295 199.025L183.31 199.248C180.07 200.005 176.639 200.466 172.509 200.701C170.076 200.839 167.63 200.889 165.264 200.935C162.92 200.983 160.496 201.032 158.104 201.168C153.835 201.411 148.164 201.981 142.14 204.246L138.039 205.787L141.708 203.393Z" fill="#5FA469"/>
<path d="M63.0063 201.082C59.7399 198.465 56.2016 195.99 55.2583 191.511C53.95 185.306 57.8706 185.109 60.9637 180.296C52.4207 175.779 44.5623 174.522 39.3215 164.697C34.1597 155.022 40.0612 148.81 49.9785 150.999C51.341 151.298 42.7265 143.516 41.2579 142.186C38.0088 139.246 35.6012 134.86 34.2864 130.722C31.9038 123.228 33.6778 113.658 43.2897 113.705C51.6193 113.745 54.8207 123.03 57.6312 129.59C58.8929 132.536 60.3074 136.277 60.8814 139.527C65.402 136.3 67.4381 129.962 73.2323 134.958C77.2753 138.448 77.9435 146.726 75.6226 151.238C76.88 151.24 78.0302 151.192 79.1056 151.142C83.6175 150.933 86.793 150.725 90.8761 154.394C94.1436 157.329 97.2844 162.29 99.3107 166.612C103.922 176.45 110.344 212.256 111.092 223.858C111.092 223.858 69.8489 206.563 63.0063 201.082Z" fill="#5FA469"/>
<path d="M57.3269 128.874C57.2176 128.615 57.1081 128.353 56.9966 128.088C57.1081 128.353 57.2186 128.614 57.3269 128.871V128.874Z" fill="#E5F7FF"/>
<path d="M70.945 173.647L70.1489 172.279L42.146 168.92C41.8763 168.594 41.6067 168.269 41.3467 167.917L69.5814 171.305L65.4323 164.175L37.7944 160.859C37.7132 160.543 37.645 160.233 37.5908 159.929L64.8648 163.2L45.0117 129.095L33.5738 127.679C33.5272 127.373 33.4915 127.065 33.459 126.758L44.3272 128.062L44.4984 128.213L37.1402 115.574C37.3785 115.393 37.6276 115.224 37.8886 115.066L49.333 134.728L53.1529 120.161C53.3771 120.516 53.5915 120.88 53.7994 121.249L50.3056 136.398L53.1442 141.274L56.7529 127.511C56.8352 127.705 56.9164 127.897 56.9966 128.088C57.1081 128.353 57.2175 128.615 57.3269 128.874L53.8179 142.433L63.4872 159.046L70.2908 133.239C70.5626 133.312 70.8464 133.416 71.1388 133.551L64.2724 160.394L65.9836 163.335L66.0995 163.349L66.081 163.5L70.7013 171.439L72.0908 171.606C71.9305 171.884 71.7692 172.166 71.6056 172.455L71.2688 172.414L71.4518 172.728C71.284 173.028 71.1139 173.335 70.945 173.647Z" fill="#9FC8A5"/>
<path d="M142.061 188.196C141.807 175.472 137.514 164.325 142.998 151.425C146.507 143.168 157.675 129.723 167.329 138.509C150.355 128.366 176.521 98.5768 192.233 101.236C197.826 113.068 195.101 127.968 185.848 137.779C191.222 136.12 193.61 137.283 195.345 142.419C197.367 148.405 193.047 153.783 190.922 155.411C188.797 157.039 183.624 161.083 179.867 164.21C185.159 165.279 190.903 168.724 188.646 175.468C186.907 180.663 180.09 181.614 176.114 184.48C180.01 184.413 184.216 183.906 187.728 185.322C189.846 198.307 171.114 204.887 162.294 208.443C149.843 213.461 137.173 218.223 124.794 222.731L142.061 188.196Z" fill="#5FA469"/>
<path d="M192.242 101.253C192.24 101.247 192.236 101.241 192.233 101.235C192.236 101.241 192.24 101.247 192.242 101.253Z" fill="#E5F7FF"/>
<path d="M181.464 173.781C181.289 173.465 181.117 173.155 180.947 172.852L189.104 171.871C189.134 172.189 189.139 172.521 189.132 172.858L181.464 173.781ZM166.166 157.496L165.343 157.078L175.357 135.388L168.839 113.489C169.101 113.201 169.375 112.918 169.643 112.636L176 133.995L178.662 128.227L173.063 109.11C173.31 108.891 173.565 108.679 173.817 108.466L179.212 127.76L191.759 101.186C191.917 101.206 192.079 101.21 192.233 101.236C192.236 101.241 192.239 101.248 192.242 101.253C192.325 101.43 192.39 101.614 192.469 101.792L168.853 151.807L195.546 147.494C195.434 147.844 195.307 148.188 195.153 148.52L168.361 152.849L166.166 157.496ZM163.286 156.032L162.165 155.462L156.848 136.353C157.131 136.247 157.417 136.153 157.704 136.069L163.286 156.032Z" fill="#9FC8A5"/>
<path d="M162.245 223.242L162.354 232.99C162.141 229.655 162.082 226.363 162.245 223.242ZM221.838 191.066C221.838 191.066 206.955 212.606 201.08 218.873C199.718 209.174 194.364 197.851 188.744 188.142C180.258 169.929 173.754 161.353 173.754 161.353L152.644 150.623C151.476 151.409 150.619 152.215 150.619 152.215C150.619 152.215 144.947 155.582 136.347 157.547C117.559 160.9 102.809 150.757 101.548 149.907L78.731 161.991C78.731 161.991 62.8949 179.591 59.7909 210.187C58.4219 223.672 64.4382 271.398 64.2963 273.312C64.2963 273.312 69.6909 273.176 84.8588 273.899C84.8588 273.899 86.3176 230.482 86.6209 228.664C87.5014 223.377 88.4815 219.95 89.2039 220.131C89.9284 220.313 90.1071 228.04 90.1061 235.834L90.2404 223.877C91.2747 243.831 84.8588 273.899 84.8588 273.899C84.8588 273.899 94.9429 272.137 119.03 273.703C143.116 275.27 169.161 270.179 169.161 270.179C169.161 270.179 163.587 251.254 162.382 233.382C162.409 226.247 162.614 219.661 163.282 219.494C164.157 219.277 167.629 223.108 170.236 226.171C179.277 239.405 190.998 254.861 195.988 254.122C206.563 252.555 233.586 199.682 233.586 199.682L221.838 191.066Z" fill="white"/>
<path d="M120.009 162.476L94.5518 167.567C94.5518 167.567 94.5518 250.989 116.875 275.661C116.875 275.661 94.1597 213.39 97.685 169.525L125.1 161.693L120.009 162.476Z" fill="#C2DEE9"/>
<path d="M96.314 152.88L117.463 161.106C117.463 161.106 110.413 172.561 109.531 174.03C108.651 175.498 123.337 166.392 123.337 166.392L126.569 158.167L96.314 152.88Z" fill="#C2DEE9"/>
<path d="M155.061 151.705L133.911 159.931C133.911 159.931 140.08 165.51 140.08 169.624C140.08 171.336 128.037 165.217 128.037 165.217L124.806 156.992L155.061 151.705Z" fill="#C2DEE9"/>
<path d="M109.59 141.272L128.625 156.405L126.862 160.518C126.862 160.518 121.575 181.666 102.775 189.304C102.775 189.304 109.826 165.217 121.575 159.931C121.575 159.931 98.0761 152.88 96.314 152.88C94.5519 152.88 106.016 140.653 109.59 141.272Z" fill="#D43E3A"/>
<path d="M141.874 142.023C141.874 142.023 131.269 153.847 120.288 149.343C109.308 144.839 124.903 159.931 124.903 159.931C124.903 159.931 130.189 181.079 148.988 188.717C148.988 188.717 141.939 164.63 130.189 159.343C130.189 159.343 153.689 152.293 155.451 152.293C157.214 152.293 145.447 141.403 141.874 142.023Z" fill="#D43E3A"/>
<path d="M129.726 156.112C129.726 158.059 128.148 159.637 126.201 159.637C124.254 159.637 122.676 158.059 122.676 156.112C122.676 156.112 124.254 152 126.201 152C128.148 152 129.726 153.579 129.726 155.525V156.112Z" fill="#DE6264"/>
<path d="M282.673 162.91C282.673 165.947 266.298 169.525 246.119 169.525C225.939 169.525 209.594 165.947 209.594 162.91C209.594 159.875 225.953 157.414 246.134 157.414C266.313 157.414 282.673 159.875 282.673 162.91Z" fill="#727F9C"/>
<path d="M277.183 160.185C277.143 143.221 263.396 129.496 246.442 129.496C229.488 129.496 215.74 143.221 215.699 160.165C215.927 162.799 229.6 164.865 246.442 164.865C263.283 164.865 276.956 162.799 277.173 160.238L277.183 160.185Z" fill="#596A83"/>
<path d="M250.596 127.037C250.596 128.959 249.038 130.519 247.115 130.519C245.188 130.519 243.629 128.959 243.629 127.037C243.629 125.112 245.188 123.552 247.115 123.552C249.038 123.552 250.596 125.112 250.596 127.037Z" fill="#596A83"/>
<path d="M231.328 161.264C231.328 161.264 225.592 160.853 221.492 160.034C221.901 151.015 224.771 135.438 244.04 132.57C244.04 132.57 231.737 139.538 231.328 161.264Z" fill="#ACB5C1"/>
<path d="M146.641 91.8035C146.641 91.8035 126.662 99.1995 107.084 92.9125L107.484 83.2984C107.484 83.2984 134.654 88.106 145.442 82.1883L146.641 91.8035Z" fill="#C2DEE9"/>
<path d="M107.085 84.9306C107.085 84.9306 92.9836 83.3624 98.076 72.3967C103.168 61.431 110.218 69.2634 110.218 69.2634C110.218 69.2634 113.36 51.8071 127.842 52.4223C146.249 53.2064 141.941 75.1389 141.941 75.1389C141.941 75.1389 154.473 66.1313 154.084 78.6642C153.764 88.9086 143.117 91.9801 127.842 87.2797C127.842 87.2797 116.876 82.5804 107.085 84.9306Z" fill="white"/>
<path d="M107.385 83.3364L107.084 92.9126C118.148 96.466 133.04 97.0141 144.551 92.6646C145.262 92.396 145.959 92.1101 146.641 91.8036L146.67 88.4353L145.465 91.001L129.016 91.9801C107.476 91.392 108.63 85.9389 107.385 83.3364Z" fill="white"/>
<path d="M105.91 176.576C105.91 177.657 105.032 178.533 103.95 178.533C102.869 178.533 101.992 177.657 101.992 176.576C101.992 175.494 102.869 174.618 103.95 174.618C105.032 174.618 105.91 175.494 105.91 176.576Z" fill="#C2DEE9"/>
<path d="M107.085 194.2C107.085 195.281 106.209 196.158 105.125 196.158C104.045 196.158 103.167 195.281 103.167 194.2C103.167 193.118 104.045 192.241 105.125 192.241C106.209 192.241 107.085 193.118 107.085 194.2Z" fill="#C2DEE9"/>
<path d="M109.044 213.782C109.044 214.863 108.167 215.739 107.085 215.739C106.003 215.739 105.127 214.863 105.127 213.782C105.127 212.699 106.003 211.823 107.085 211.823C108.167 211.823 109.044 212.699 109.044 213.782Z" fill="#C2DEE9"/>
<path d="M111.784 232.19C111.784 233.27 110.908 234.148 109.826 234.148C108.744 234.148 107.868 233.27 107.868 232.19C107.868 231.108 108.744 230.231 109.826 230.231C110.908 230.231 111.784 231.108 111.784 232.19Z" fill="#C2DEE9"/>
<path d="M163.285 192.241V219.494C164.165 219.285 167.632 223.112 170.236 226.171C170.531 226.604 170.831 227.039 171.131 227.475C167.508 210.726 163.285 192.241 163.285 192.241Z" fill="#C2DEE9"/>
<path d="M195.988 254.122C195.997 254.12 196.007 254.119 196.017 254.118C196.007 254.119 195.997 254.12 195.988 254.122ZM196.021 254.117C196.041 254.113 196.061 254.11 196.081 254.107C196.06 254.11 196.041 254.113 196.021 254.117ZM196.082 254.107C197.676 253.828 199.634 252.411 201.812 250.203C199.634 252.41 197.676 253.828 196.082 254.107ZM201.814 250.2C201.826 250.187 201.839 250.174 201.852 250.161C201.839 250.174 201.826 250.187 201.814 250.2ZM201.857 250.157C201.87 250.144 201.882 250.131 201.895 250.119C201.883 250.131 201.87 250.144 201.857 250.157ZM201.906 250.106C201.915 250.098 201.923 250.089 201.932 250.08C201.924 250.089 201.915 250.098 201.906 250.106ZM201.947 250.065C201.957 250.054 201.967 250.044 201.978 250.033C201.968 250.043 201.957 250.054 201.947 250.065ZM202 250.011C202.003 250.007 202.008 250.002 202.012 249.999C202.007 250.002 202.004 250.007 202 250.011ZM202.089 249.918C202.092 249.917 202.093 249.915 202.095 249.912C202.093 249.915 202.091 249.917 202.089 249.918Z" fill="#D3F2FF"/>
<path d="M195.631 254.147C192.299 254.147 186.383 247.9 180.236 239.998C181.961 238.626 188.032 234.304 196.027 234.304C200.384 234.304 205.313 235.588 210.42 239.333C207.508 243.547 204.656 247.258 202.095 249.912C202.093 249.915 202.092 249.917 202.09 249.918C202.064 249.945 202.038 249.972 202.012 249.999C202.008 250.002 202.003 250.007 202 250.011C201.992 250.018 201.986 250.025 201.978 250.033C201.967 250.044 201.957 250.054 201.947 250.065C201.942 250.07 201.937 250.076 201.933 250.08C201.923 250.089 201.915 250.098 201.906 250.106C201.902 250.111 201.899 250.115 201.895 250.119C201.882 250.131 201.87 250.144 201.857 250.157C201.856 250.158 201.853 250.16 201.852 250.161C201.839 250.174 201.826 250.187 201.814 250.2C201.813 250.202 201.812 250.202 201.812 250.203C199.634 252.411 197.676 253.827 196.082 254.107H196.081C196.061 254.11 196.041 254.113 196.021 254.117C196.02 254.117 196.018 254.117 196.017 254.118C196.007 254.119 195.997 254.12 195.988 254.122C195.873 254.139 195.754 254.147 195.631 254.147Z" fill="#EDFAFF"/>
<path d="M213.514 202.522L227.384 211.292C230.746 205.188 233.081 200.667 233.514 199.826C229.285 198.202 224.266 194.528 221.156 192.047C219.806 193.988 217.094 197.586 213.514 202.522Z" fill="#C2DEE9"/>
<path d="M220.27 187.835C220.27 187.835 230.845 197.235 237.6 198.703L231.138 210.453L213.808 201.052L220.27 187.835Z" fill="white"/>
<path d="M245.825 127.032C245.257 127.032 244.797 126.571 244.797 126.004C244.797 125.436 245.257 124.976 245.825 124.976C246.393 124.976 246.853 125.436 246.853 126.004C246.853 126.571 246.393 127.032 245.825 127.032Z" fill="#ACB5C1"/>
<path d="M241.412 167.531C232.291 167.531 221.858 166.505 213.514 162.867C213.514 162.867 231.374 166.516 249.855 166.516C254.232 166.516 258.642 166.311 262.861 165.805C262.861 165.805 253.239 167.531 241.412 167.531Z" fill="#B9BFCE"/>
<path d="M121.575 159.931C121.575 159.931 109.826 172.855 112.469 174.618C115.113 176.38 121.575 159.931 121.575 159.931Z" fill="#DE6264"/>
<path d="M128.037 160.518C128.037 160.518 138.905 169.624 136.262 171.973C133.618 174.323 128.037 160.518 128.037 160.518Z" fill="#DE6264"/>
<path d="M287.311 107.707C287.311 118.158 278.838 126.631 268.387 126.631C257.936 126.631 249.462 118.158 249.462 107.707C249.462 97.2555 257.936 88.7829 268.387 88.7829C278.838 88.7829 287.311 97.2555 287.311 107.707Z" fill="#FFD13D"/>
<path d="M264.342 105.106C263.627 105.106 263.043 104.52 263.043 103.806V99.4725C263.043 98.7577 263.627 98.1729 264.342 98.1729C265.058 98.1729 265.643 98.7577 265.643 99.4725V103.806C265.643 104.52 265.058 105.106 264.342 105.106Z" fill="white"/>
<path d="M267.809 99.9057C267.412 99.9057 267.086 99.5808 267.086 99.1834V93.5494C267.086 93.153 267.412 92.827 267.809 92.827C268.206 92.827 268.531 93.153 268.531 93.5494V99.1834C268.531 99.5808 268.206 99.9057 267.809 99.9057Z" fill="white"/>
<path d="M274.021 104.816C273.545 104.816 273.154 104.427 273.154 103.951V99.9057C273.154 99.4292 273.545 99.0393 274.021 99.0393C274.498 99.0393 274.888 99.4292 274.888 99.9057V103.951C274.888 104.427 274.498 104.816 274.021 104.816Z" fill="white"/>
<path d="M281.461 106.407C281.461 113.714 275.607 119.64 268.387 119.64C261.167 119.64 255.314 113.714 255.314 106.407H281.461Z" fill="#C2DEE9"/>
<path d="M275.676 106.407H255.314C255.314 110.646 257.285 114.416 260.348 116.839C261.572 117.286 262.893 117.53 264.27 117.53C270.476 117.53 275.521 112.575 275.676 106.407Z" fill="white"/>
<path d="M271.709 120.997H265.065V118.396H271.709V120.997Z" fill="#C2DEE9"/>
<path d="M241.467 90.3165C241.467 101.097 232.725 109.837 221.947 109.837C211.166 109.837 202.425 101.097 202.425 90.3165C202.425 79.536 211.166 70.7959 221.947 70.7959C232.725 70.7959 241.467 79.536 241.467 90.3165Z" fill="#95DEE6"/>
<path d="M226.507 88.2999L229.869 86.1469C229.943 86.3992 230.048 86.6483 230.195 86.8811C231.047 88.2111 232.817 88.5978 234.148 87.7465C235.478 86.8941 235.867 85.1255 235.014 83.7945C234.326 82.7212 233.037 82.262 231.868 82.5739C232.641 81.6414 232.762 80.2811 232.074 79.2068C231.223 77.8768 229.454 77.4891 228.122 78.3414C226.792 79.1938 226.405 80.9624 227.256 82.2934C227.406 82.5252 227.588 82.7245 227.787 82.8978L224.425 85.0519L226.507 88.2999Z" fill="#F0F0F0"/>
<path d="M225.05 84.8948C221.795 83.4425 215.26 83.7522 212.022 85.8273C208.052 88.3692 206.808 93.5126 209.245 97.3129C211.678 101.113 216.871 102.132 220.838 99.5895C224.078 97.5144 227.09 91.7071 227.13 88.1439L225.05 84.8948Z" fill="#C47A31"/>
<path d="M212.022 85.8273C208.541 88.0562 207.156 92.2855 208.511 95.8562C209.934 96.8829 211.682 97.4883 213.573 97.4883C218.363 97.4883 222.246 93.6057 222.246 88.8155C222.246 87.0425 221.712 85.3952 220.801 84.0219C217.693 83.8638 214.147 84.4649 212.022 85.8273Z" fill="#DA9922"/>
<path d="M228.886 81.3924C228.066 81.3924 227.401 80.7285 227.401 79.9075C227.401 79.0888 228.066 78.4248 228.886 78.4248C229.707 78.4248 230.371 79.0888 230.371 79.9075C230.371 80.7285 229.707 81.3924 228.886 81.3924Z" fill="white"/>
<path d="M274.453 47.4923C282.56 47.4923 289.132 54.0642 289.132 62.1707C289.132 70.2783 282.56 76.8512 274.453 76.8512C266.347 76.8512 259.775 70.2783 259.775 62.1707C259.775 54.0642 266.347 47.4923 274.453 47.4923Z" fill="#D43E3A"/>
<path d="M274.136 74.2616L271.34 67.9822L268.543 61.7039H279.728L276.931 67.9822L274.136 74.2616Z" fill="#FFBF44"/>
<path d="M278.267 61.7039H268.543L269.048 62.8389L276.088 69.8775L276.931 67.9822L279.278 62.7133L278.267 61.7039Z" fill="#F39A21"/>
<path d="M275.623 70.9205C275.428 70.8609 275.233 70.8013 275.044 70.7385C275.332 70.6107 275.61 70.4786 275.879 70.3443L276.406 69.1595C275.672 69.5786 274.852 69.9782 273.937 70.3389C273.234 70.0616 272.587 69.7616 271.991 69.4465L272.499 70.5869C272.608 70.6378 272.719 70.6887 272.829 70.7385L272.599 70.8122L272.925 71.5443C273.273 71.4317 273.611 71.3147 273.937 71.1913C274.369 71.3548 274.824 71.5086 275.296 71.6526L275.623 70.9205Z" fill="white"/>
<path d="M273.937 63.1032C274.689 63.6425 275.557 64.1754 276.554 64.6671C275.83 65.2616 274.965 65.8671 273.937 66.4313C272.908 65.8671 272.043 65.2616 271.318 64.6671C272.315 64.1754 273.183 63.6425 273.937 63.1032ZM269.875 64.4483L269.781 64.4851L270.106 65.214C270.247 65.1544 270.387 65.097 270.522 65.0364C271.232 65.6483 272.084 66.2754 273.092 66.8667C272.508 67.1505 271.876 67.419 271.198 67.666L271.34 67.9822L271.523 68.396C272.403 68.0721 273.206 67.7136 273.937 67.3335C274.76 67.7624 275.676 68.1631 276.692 68.5183L276.931 67.9822L277.018 67.7873C276.208 67.5079 275.462 67.197 274.779 66.8667C275.79 66.2754 276.64 65.6483 277.349 65.0364C277.594 65.1436 277.845 65.2475 278.104 65.3493L278.428 64.6205C278.284 64.5631 278.138 64.5068 277.998 64.4483C278.203 64.2512 278.392 64.0584 278.568 63.87C278.701 63.727 278.83 63.5862 278.951 63.4465L279.728 61.7039H279.298C278.943 62.2183 278.502 62.7815 277.956 63.3598C277.731 63.5981 277.482 63.8461 277.21 64.0974C276.217 63.6306 275.352 63.1205 274.603 62.5996C274.984 62.2985 275.329 61.9985 275.642 61.7039H274.445C274.281 61.8393 274.112 61.9757 273.937 62.1111C273.76 61.9757 273.59 61.8393 273.429 61.7039H272.231C272.544 61.9985 272.888 62.2985 273.269 62.5996C272.52 63.1205 271.657 63.6306 270.664 64.0974C270.39 63.8461 270.141 63.5981 269.915 63.3598C269.372 62.7815 268.93 62.2183 268.575 61.7039L269.678 64.2544L269.875 64.4483Z" fill="white"/>
<path d="M276.088 69.8775L276.273 69.4595L276.406 69.1595C276.191 69.2829 275.964 69.4042 275.734 69.5234L276.088 69.8775Z" fill="#DFE0CF"/>
<path d="M271.318 64.6671C272.315 64.1754 273.183 63.6425 273.937 63.1032C274.689 63.6425 275.557 64.1754 276.554 64.6671C275.83 65.2616 274.965 65.8671 273.937 66.4313C272.908 65.8671 272.043 65.2616 271.318 64.6671ZM274.779 66.8667C275.79 66.2754 276.64 65.6483 277.349 65.0364C277.594 65.1436 277.845 65.2475 278.104 65.3493L278.428 64.6205C278.284 64.5631 278.138 64.5068 277.998 64.4483C278.203 64.2512 278.392 64.0584 278.568 63.87C278.701 63.727 278.83 63.5862 278.951 63.4465L279.278 62.7133L278.862 62.2984C278.598 62.6407 278.298 62.997 277.956 63.3598C277.731 63.5981 277.482 63.8461 277.21 64.0974C276.217 63.6306 275.352 63.1205 274.603 62.5996C274.984 62.2985 275.329 61.9985 275.642 61.7039H274.445C274.281 61.8393 274.112 61.9757 273.937 62.1111C273.76 61.9757 273.59 61.8393 273.429 61.7039H272.231C272.544 61.9985 272.888 62.2985 273.269 62.5996C272.52 63.1205 271.657 63.6306 270.664 64.0974C270.39 63.8461 270.141 63.5981 269.915 63.3598C269.372 62.7815 268.93 62.2183 268.575 61.7039L269.048 62.8389L273.053 66.8428L273.674 67.4656L273.937 67.3335C274.76 67.7624 275.676 68.1631 276.692 68.5183L276.931 67.9822L277.018 67.7873C276.208 67.5079 275.462 67.197 274.779 66.8667Z" fill="#DFE0CF"/>
<path d="M282.128 59.084C282.167 58.7786 282.186 58.4666 282.186 58.1493C282.186 53.8789 278.724 50.4154 274.453 50.4154C270.348 50.4154 266.99 53.6179 266.738 57.6609C266.621 58.1537 266.55 58.6659 266.533 59.1923C265.755 59.593 265.222 60.4031 265.222 61.3389C265.222 62.6742 266.304 63.7562 267.638 63.7562C268.684 63.7562 269.575 63.089 269.91 62.1565C270.246 63.089 271.135 63.7562 272.181 63.7562C273.229 63.7562 274.118 63.089 274.453 62.1565C274.789 63.089 275.677 63.7562 276.726 63.7562C277.772 63.7562 278.661 63.089 278.997 62.1565C279.331 63.089 280.222 63.7562 281.269 63.7562C282.603 63.7562 283.685 62.6742 283.685 61.3389C283.685 60.3078 283.037 59.4316 282.128 59.084Z" fill="white"/>
<path d="M272.199 52.7471C272.199 53.1132 271.901 53.41 271.535 53.41C271.167 53.41 270.873 53.1132 270.873 52.7471C270.873 52.38 271.167 52.0833 271.535 52.0833C271.901 52.0833 272.199 52.38 272.199 52.7471Z" fill="#F55557"/>
<path d="M275.701 54.8158C275.701 55.1818 275.403 55.4797 275.036 55.4797C274.67 55.4797 274.373 55.1818 274.373 54.8158C274.373 54.4497 274.67 54.1529 275.036 54.1529C275.403 54.1529 275.701 54.4497 275.701 54.8158Z" fill="#F55557"/>
<path d="M278.565 52.588C278.565 52.9541 278.269 53.2508 277.901 53.2508C277.536 53.2508 277.239 52.9541 277.239 52.588C277.239 52.2208 277.536 51.9252 277.901 51.9252C278.269 51.9252 278.565 52.2208 278.565 52.588Z" fill="#F55557"/>
<path d="M269.573 54.219C269.573 54.5775 269.281 54.8688 268.923 54.8688C268.563 54.8688 268.273 54.5775 268.273 54.219C268.273 53.8605 268.563 53.5691 268.923 53.5691C269.281 53.5691 269.573 53.8605 269.573 54.219Z" fill="#F55557"/>
<path d="M275.183 51.6327C275.183 51.9923 274.892 52.2825 274.533 52.2825C274.174 52.2825 273.883 51.9923 273.883 51.6327C273.883 51.2731 274.174 50.9829 274.533 50.9829C274.892 50.9829 275.183 51.2731 275.183 51.6327Z" fill="#F55557"/>
<path d="M279.322 55.2934C279.322 55.6519 279.029 55.9432 278.671 55.9432C278.312 55.9432 278.022 55.6519 278.022 55.2934C278.022 54.9349 278.312 54.6436 278.671 54.6436C279.029 54.6436 279.322 54.9349 279.322 55.2934Z" fill="#F55557"/>
<path d="M272.557 55.692C272.557 56.0504 272.266 56.3418 271.906 56.3418C271.548 56.3418 271.256 56.0504 271.256 55.692C271.256 55.3324 271.548 55.0411 271.906 55.0411C272.266 55.0411 272.557 55.3324 272.557 55.692Z" fill="#F55557"/>
<path d="M203.323 49.6389C203.323 60.1942 194.766 68.7512 184.211 68.7512C173.654 68.7512 165.1 60.1942 165.1 49.6389C165.1 39.0837 173.654 30.5266 184.211 30.5266C194.766 30.5266 203.323 39.0837 203.323 49.6389Z" fill="white"/>
<path d="M189.371 43.9107H174.493L176.738 57.5862C176.86 58.3238 177.237 58.9736 177.697 59.3256C177.929 59.5064 184.121 61.7342 184.121 61.7342C184.121 61.7342 190.595 59.4988 190.835 59.3082C191.283 58.9508 191.65 58.3118 191.77 57.5862L194.015 43.9107H189.371Z" fill="#596A83"/>
<path d="M184.121 61.7342C184.121 61.7342 177.929 59.5064 177.697 59.3256C177.237 58.9736 176.86 58.3238 176.738 57.5862L175.067 47.4068L179.435 49.354C179.889 49.5566 180.517 49.6616 181.123 49.6627C181.574 49.6627 182.013 49.6042 182.362 49.484L184.121 48.8808V61.7342ZM184.121 61.7342C184.121 61.7342 190.479 59.4631 190.762 59.2162C191.184 58.8479 191.521 58.2544 191.639 57.5862L193.394 47.488L193.431 47.4717L191.77 57.5862C191.65 58.3118 191.283 58.9508 190.835 59.3082C190.595 59.4988 184.121 61.7342 184.121 61.7342ZM184.121 47.2021L175.759 43.9107H179.138H189.371H192.884H189.1H184.121V47.2021Z" fill="#ACB5C1"/>
<path d="M184.121 43.9107V61.7342C184.121 61.7342 190.479 59.4631 190.762 59.2162C191.184 58.8479 191.521 58.2544 191.639 57.5862L194.015 43.9107H189.1H184.121Z" fill="#596A83"/>
<path d="M174.824 43.5424L171.553 44.6644C170.735 44.946 170.712 45.4637 171.501 45.8168L179.435 49.354C180.227 49.707 181.543 49.7655 182.362 49.4839L186.401 48.0987L174.824 43.5424Z" fill="#596A83"/>
<path d="M193.818 43.5424L197.088 44.6644C197.909 44.946 197.931 45.4637 197.14 45.8168L189.209 49.354C188.416 49.707 187.099 49.7655 186.28 49.4839L182.243 48.0987L193.818 43.5424Z" fill="#596A83"/>
<path d="M187.519 49.6627C187.069 49.6627 186.63 49.6042 186.28 49.484L184.321 48.8125L182.243 48.0988L193.818 43.5425L197.088 44.6645C197.505 44.8075 197.715 45.0111 197.718 45.2234C197.722 45.4292 197.529 45.6436 197.14 45.8169L189.209 49.354C188.754 49.5566 188.126 49.6627 187.519 49.6627Z" fill="#ACB5C1"/>
<path d="M185.669 47.5334C184.889 47.8399 183.617 47.8399 182.841 47.5334L175.044 44.4641C174.267 44.1587 174.267 43.6573 175.044 43.3519L182.841 40.2826C183.617 39.9761 184.889 39.9761 185.669 40.2826L193.464 43.3519C194.241 43.6573 194.241 44.1587 193.464 44.4641L185.669 47.5334Z" fill="#885493"/>
<path d="M185.669 47.5334C184.889 47.8399 183.617 47.8399 182.841 47.5334L175.044 44.4641C174.267 44.1587 174.267 43.6573 175.044 43.3519L182.841 40.2826C183.617 39.9761 184.889 39.9761 185.669 40.2826L193.464 43.3519C194.241 43.6573 194.241 44.1587 193.464 44.4641L185.669 47.5334Z" fill="#596A83"/>
<path d="M184.591 44.7825C184.768 44.9818 184.931 45.1962 185.077 45.4204C184.893 45.6414 184.729 45.8818 184.591 46.1352C184.451 45.8818 184.289 45.6414 184.103 45.4204C184.251 45.1962 184.413 44.9818 184.591 44.7825ZM176.472 45.0262C177.442 43.7948 178.946 43.0009 180.633 43.0009C181.801 43.0009 182.879 43.381 183.754 44.0222C183.58 44.2182 183.417 44.424 183.267 44.6395C182.527 44.1045 181.616 43.7872 180.633 43.7872C179.282 43.7872 178.068 44.385 177.239 45.3295L178.384 45.7789C178.981 45.2439 179.769 44.9179 180.633 44.9179C181.411 44.9179 182.13 45.1843 182.703 45.6283C182.605 45.8439 182.518 46.0648 182.443 46.2912C181.962 45.858 181.329 45.5915 180.633 45.5915C180.068 45.5915 179.544 45.7659 179.107 46.0637L180.808 46.7331C181.093 46.7645 181.357 46.8717 181.576 47.0352L182.841 47.5334C182.976 47.5886 183.129 47.6309 183.29 47.6655C183.336 47.2886 183.42 46.9247 183.539 46.576C183.753 46.9312 183.899 47.3309 183.969 47.7543C184.397 47.7792 184.841 47.7489 185.23 47.6634C185.303 47.2724 185.446 46.9063 185.642 46.576C185.739 46.8598 185.815 47.1543 185.863 47.4565L189.807 45.9034C189.431 45.7063 189.003 45.5915 188.548 45.5915C187.853 45.5915 187.219 45.858 186.739 46.2912C186.665 46.0648 186.577 45.8439 186.48 45.6283C187.052 45.1843 187.77 44.9179 188.548 44.9179C189.31 44.9179 190.016 45.1724 190.581 45.5991L191.761 45.1345C190.943 44.3038 189.805 43.7872 188.548 43.7872C187.566 43.7872 186.657 44.1045 185.915 44.6395C185.764 44.424 185.602 44.2182 185.426 44.0222C186.304 43.381 187.383 43.0009 188.548 43.0009C190.142 43.0009 191.571 43.7092 192.545 44.8258L193.464 44.4641L193.641 44.3829C193.045 43.6085 192.276 42.9727 191.39 42.5352L190.387 42.1399C189.805 41.9655 189.188 41.8703 188.548 41.8703C187.056 41.8703 185.684 42.3825 184.591 43.2392C183.499 42.3825 182.125 41.8703 180.633 41.8703C178.466 41.8703 176.546 42.9489 175.381 44.5973L176.472 45.0262Z" fill="white"/>
<path d="M189.65 36.2114C189.886 35.5714 190.649 35.2638 191.355 35.5226C192.061 35.7825 192.443 36.5114 192.208 37.1504L188.448 46.1407L186.269 46.8381L189.65 36.2114Z" fill="#FFD13D"/>
<path d="M188.548 43.7872C187.891 43.7872 187.269 43.9323 186.704 44.1868L186.48 45.6284C187.052 45.1843 187.77 44.9179 188.548 44.9179C188.854 44.9179 189.148 44.9601 189.43 45.037L189.875 43.9865C189.455 43.8576 189.011 43.7872 188.548 43.7872Z" fill="white"/>
<path d="M185.439 45.4107V46.9833C185.499 46.8425 185.565 46.706 185.643 46.576C185.739 46.8598 185.815 47.1543 185.864 47.4565L189.807 45.9035C189.431 45.7063 189.003 45.5916 188.548 45.5916C187.853 45.5916 187.22 45.858 186.739 46.2912C186.665 46.0648 186.577 45.8439 186.48 45.6284C186.581 45.5493 186.69 45.4778 186.801 45.4107H185.439Z" fill="white"/>
<path d="M182.762 46.8392L179.912 35.6374C179.715 34.9854 178.971 34.6323 178.252 34.85C177.531 35.0677 177.107 35.7728 177.303 36.4248L180.661 45.9988L182.762 46.8392Z" fill="#FFD13D"/>
<path d="M183.008 45.8363L182.646 45.7649C182.571 45.936 182.502 46.1114 182.443 46.2912C181.962 45.858 181.329 45.5916 180.634 45.5916C180.509 45.5916 180.388 45.6013 180.271 45.6175L180.103 46.4558L180.808 46.7331C181.093 46.7645 181.357 46.8717 181.576 47.0353L182.681 47.4707L183.008 45.8363Z" fill="white"/>
<path d="M257.989 40.5836C257.989 53.6255 247.417 64.1992 234.374 64.1992C221.33 64.1992 210.756 53.6255 210.756 40.5836C210.756 27.5406 221.33 16.967 234.374 16.967C247.417 16.967 257.989 27.5406 257.989 40.5836Z" fill="white"/>
<path d="M243.993 23.1652L236.719 39.0815L253.675 33.1248C253.675 33.1248 250.356 23.4413 243.993 23.1652Z" fill="#FFD13D"/>
<path d="M243.288 24.7075L242.786 25.8046C246.775 27.219 249.265 32.2053 250.176 34.354L251.711 33.8147C250.862 31.7287 248.014 25.6638 243.288 24.7075Z" fill="#FFBF44"/>
<path d="M233.059 41.8974L239.912 26.9006C237.848 25.9562 235.56 25.4168 233.141 25.4168C224.123 25.4168 216.812 32.7284 216.812 41.7468C216.812 50.7652 224.123 58.0768 233.141 58.0768C242.16 58.0768 249.471 50.7652 249.471 41.7468C249.471 39.8883 249.145 38.11 248.573 36.4465L233.059 41.8974Z" fill="#FFD13D"/>
<path d="M246.739 37.0919L245.41 37.5576C245.846 38.8291 246.092 40.1872 246.092 41.6059C246.092 48.5254 240.483 54.1345 233.564 54.1345C226.644 54.1345 221.035 48.5254 221.035 41.6059C221.035 34.6864 226.644 29.0774 233.564 29.0774C235.302 29.0774 236.958 29.4327 238.463 30.0727L239.047 28.7937C237.364 28.0713 235.512 27.6695 233.564 27.6695C225.866 27.6695 219.628 33.9088 219.628 41.6059C219.628 49.3031 225.866 55.5424 233.564 55.5424C241.261 55.5424 247.5 49.3031 247.5 41.6059C247.5 40.0236 247.224 38.5085 246.739 37.0919Z" fill="#FFBF44"/>
<path d="M233.423 47.9407C233.423 49.4959 232.163 50.7554 230.607 50.7554C229.053 50.7554 227.792 49.4959 227.792 47.9407C227.792 46.3854 229.053 45.1258 230.607 45.1258C232.163 45.1258 233.423 46.3854 233.423 47.9407Z" fill="#D43E3A"/>
<path d="M243.765 31.7829C243.765 31.7829 244.237 35.8854 240.511 34.8317C240.511 34.8317 240.213 31.5252 243.765 31.7829Z" fill="#5FA469"/>
<path d="M246.656 31.1894C246.656 32.3558 245.71 33.3002 244.543 33.3002C243.378 33.3002 242.431 32.3558 242.431 31.1894C242.431 30.023 243.378 29.0775 244.543 29.0775C245.71 29.0775 246.656 30.023 246.656 31.1894Z" fill="#D43E3A"/>
<path d="M227.792 38.6504C227.792 39.4269 227.162 40.0573 226.384 40.0573C225.606 40.0573 224.976 39.4269 224.976 38.6504C224.976 37.8717 225.606 37.2424 226.384 37.2424C227.162 37.2424 227.792 37.8717 227.792 38.6504Z" fill="#D43E3A"/>
<path d="M243.84 43.2955C243.84 44.4609 242.894 45.4064 241.728 45.4064C240.563 45.4064 239.618 44.4609 239.618 43.2955C239.618 42.1291 240.563 41.1836 241.728 41.1836C242.894 41.1836 243.84 42.1291 243.84 43.2955Z" fill="#D43E3A"/>
<path d="M233.49 37.445C232.477 37.4147 231.596 37.197 230.794 36.9663L230.517 36.8862L230.457 36.6035C230.363 36.1638 230.364 35.7522 230.461 35.3786L230.529 35.1198L230.785 35.0396C231.687 34.7569 232.319 34.131 232.396 33.4822C232.233 33.4237 232.069 33.362 231.904 33.3014C231.333 33.088 230.742 32.8681 230.177 32.7111L230.433 31.7818C231.041 31.9497 231.651 32.1782 232.242 32.3981C232.508 32.4977 232.772 32.5963 233.032 32.6873L233.308 32.7848L233.348 33.0771C233.503 34.2252 232.694 35.3353 231.355 35.8606L231.357 36.1226C232.017 36.3035 232.732 36.4584 233.519 36.4811L233.49 37.445Z" fill="#FFA132"/>
<path d="M233.704 32.4555C233.704 33.6219 232.759 34.5674 231.592 34.5674C230.427 34.5674 229.482 33.6219 229.482 32.4555C229.482 31.2891 230.427 30.3446 231.592 30.3446C232.759 30.3446 233.704 31.2891 233.704 32.4555Z" fill="#D43E3A"/>
<path d="M236.826 51.1573C236.444 51.1573 236.078 51.1107 235.706 50.9331L235.264 50.723L235.565 50.3364C235.784 50.0569 236.217 49.7461 236.721 49.3854C237.255 49.0031 238.504 48.1064 238.348 47.7793C238.108 47.2833 236.879 47.6277 235.983 47.88C235.512 48.0122 235.064 48.1378 234.704 48.1725L234.627 47.3927C234.918 47.3645 235.333 47.2475 235.772 47.1241C237 46.7797 238.528 46.3508 239.053 47.4381C239.497 48.3598 238.266 49.2436 237.177 50.0234C237.013 50.1403 236.848 50.2584 236.699 50.371C236.866 50.3786 237.047 50.3688 237.246 50.358L237.292 51.14C237.134 51.1497 236.978 51.1573 236.826 51.1573Z" fill="#FFA132"/>
<path d="M224.504 45.0252L223.518 44.4793C223.786 43.9974 224.174 43.5826 224.548 43.1808C224.705 43.0129 224.86 42.8472 225 42.6804L225.245 42.3891L225.606 42.5082C225.819 42.5775 226.126 42.6046 226.45 42.6317C226.809 42.6631 227.203 42.6977 227.572 42.8017C228.227 41.9743 229.042 41.0115 230.05 39.8699L230.895 40.6162C229.765 41.8931 228.885 42.9414 228.205 43.8198L227.919 44.1902L227.502 43.9757C227.218 43.8295 226.778 43.7916 226.353 43.7548C226.111 43.7342 225.864 43.7126 225.63 43.6692L225.372 43.9487C225.044 44.3006 224.705 44.6645 224.504 45.0252Z" fill="#FFA132"/>
<path d="M234.69 43.1548C234.69 43.1548 236.378 40.4797 237.927 43.014C237.927 43.014 236.519 45.1259 234.69 43.1548Z" fill="#5FA469"/>
<path d="M224.271 32.5627C224.271 32.5627 228.014 31.7298 228.829 35.2085C228.829 35.2085 225.769 35.8031 224.271 32.5627Z" fill="#5FA469"/>
<path d="M227.129 45.5558C227.129 45.5558 227.298 49.6822 223.66 48.3555C223.66 48.3555 223.608 45.0349 227.129 45.5558Z" fill="#5FA469"/>
</svg>
