<svg width="352" height="246" viewBox="0 0 352 246" fill="none" xmlns="http://www.w3.org/2000/svg">
<path d="M336.8 150.134C321.267 191.991 288.107 226.431 243.872 237.399C217.652 243.897 190.638 245.336 163.723 245.539C141.975 245.702 120.537 238.436 99.2895 233.542C74.674 227.872 56.4936 223.869 36.5252 209.103C23.2636 199.297 7.74335 190.836 2.40464 174.985C-3.90516 156.248 2.55195 137.969 17.6821 125.757C31.9459 114.244 51.851 112.385 68.3549 106.595C93.3605 97.8202 83.2746 84.8152 80.0645 64.2312C72.5972 16.3279 132.482 -6.90933 169.628 4.43082C215.318 18.3805 263.45 33.2759 304.986 57.1655C337.467 75.8441 350.446 113.373 336.8 150.134Z" fill="#D3F2FF"/>
<path d="M183.139 243.226C183.139 244.31 162.579 245.189 137.214 245.189C111.849 245.189 91.2885 244.31 91.2885 243.226C91.2885 242.141 111.849 241.263 137.214 241.263C162.579 241.263 183.139 242.141 183.139 243.226Z" fill="#ABDBE6"/>
<path d="M187.718 128.635C187.718 128.635 180.606 134.694 184.598 143.655C188.591 152.615 199.447 159.6 210.525 165.74C218.866 170.363 221.361 173.637 217.681 179.971C213.065 187.912 207.806 186.273 201.582 194.087C199.435 197.096 193.656 206.193 193.656 206.193L198.794 209.448C198.794 209.448 198.484 207.481 204.772 203.069C211.675 198.229 224.101 192.045 227.904 189.185C231.707 186.324 238.132 182.655 235.254 173.635C232.379 164.615 206.914 142.494 206.914 142.494L187.718 128.635Z" fill="#596A83"/>
<path d="M127.405 62.7458C127.405 64.9986 125.576 66.8269 123.322 66.8269C121.066 66.8269 119.24 64.9986 119.24 62.7458C119.24 60.4883 121.066 58.6612 123.322 58.6612C125.576 58.6612 127.405 60.4883 127.405 62.7458Z" fill="#ABDBE6"/>
<path d="M287.382 66.0791C287.382 69.3859 284.69 72.0679 281.388 72.0679C278.086 72.0679 275.393 69.3859 275.393 66.0791C275.393 62.77 278.086 60.0892 281.388 60.0892C284.69 60.0892 287.382 62.77 287.382 66.0791Z" fill="#ABDBE6"/>
<path d="M263.922 195.599C289.787 167.834 271.55 134.897 271.55 134.897L275.094 135.443C275.094 135.443 299.314 162.387 275.359 191.788L263.922 195.599Z" fill="#D43E3A"/>
<path d="M273.449 136.804C273.449 139.509 271.263 141.704 268.559 141.704C265.855 141.704 263.657 139.509 263.657 136.804C263.657 134.097 265.855 131.905 268.559 131.905C271.263 131.905 273.449 134.097 273.449 136.804Z" fill="#D43E3A"/>
<path d="M166.479 220.097C166.479 233.026 155.996 243.509 143.067 243.509C130.14 243.509 119.657 233.026 119.657 220.097C119.657 207.168 130.14 196.685 143.067 196.685C155.996 196.685 166.479 207.168 166.479 220.097Z" fill="#DDE4EA"/>
<path d="M166.479 220.097C166.479 233.026 155.996 243.509 143.067 243.509C130.14 243.509 119.657 233.026 119.657 220.097C119.657 207.168 130.14 196.685 143.067 196.685C155.996 196.685 166.479 207.168 166.479 220.097Z" fill="#596A83"/>
<path d="M154.616 220.097C154.616 226.775 149.203 232.19 142.525 232.19C135.846 232.19 130.432 226.775 130.432 220.097C130.432 213.42 135.846 208.005 142.525 208.005C149.203 208.005 154.616 213.42 154.616 220.097Z" fill="white"/>
<path d="M201.864 162.263C201.864 162.263 189.341 187.827 203.223 204.197C217.108 220.568 250.322 214.824 250.322 214.824L250.046 226.025L89.9871 232.056C89.9871 232.056 97.0655 172.606 125.647 157.383C154.226 142.16 192.88 150.202 201.864 162.263Z" fill="#D43E3A"/>
<path d="M188.255 194.238C183.625 177.09 158.857 174.366 132.453 187.705C106.048 201.044 91.3481 227.448 91.3481 227.448C91.3481 227.448 91.79 227.513 92.5942 227.627L172.635 224.768C185.405 218.208 191.762 207.242 188.255 194.238Z" fill="#DE6264"/>
<path d="M100.392 189.851L99.9971 189.574C100.019 189.544 100.816 188.416 102.283 186.596C102.029 187.171 101.783 187.745 101.538 188.324C100.815 189.257 100.422 189.809 100.392 189.851ZM197.837 157.946C197.598 157.928 197.341 157.909 197.068 157.889C196.796 157.706 196.52 157.525 196.233 157.346C196.534 157.368 196.819 157.388 197.087 157.408C197.335 157.588 197.585 157.767 197.837 157.946Z" fill="#E5F7FF"/>
<path d="M200.387 158.161C200.353 158.158 199.524 158.075 197.837 157.946C197.585 157.767 197.335 157.588 197.087 157.408C199.31 157.57 200.397 157.678 200.435 157.683L200.387 158.161Z" fill="#9BA6B5"/>
<path d="M101.538 188.324C101.783 187.745 102.029 187.171 102.283 186.596C104.884 183.366 109.588 177.953 115.792 172.606C124.671 164.952 138.506 155.899 154.207 155.899C154.359 155.899 154.51 155.9 154.661 155.902C176.592 156.169 189.992 156.908 196.233 157.346C196.52 157.525 196.796 157.706 197.068 157.889C191.266 157.464 177.656 156.664 154.654 156.383C154.492 156.381 154.325 156.38 154.163 156.38C127.995 156.38 106.619 181.769 101.538 188.324Z" fill="#E58B89"/>
<path d="M181.175 132.177C181.175 132.177 175.187 140.071 180.632 149.052C186.075 158.035 202.954 159.941 210.575 166.201C218.195 172.462 221.921 174.771 219.361 182.323C216.15 191.8 210.689 190.997 205.87 200.633C204.262 204.295 200.099 215.24 200.099 215.24L205.71 217.818C205.71 217.818 205.072 215.74 210.529 209.786C216.517 203.255 227.722 194.238 230.99 190.427C234.258 186.617 239.972 181.445 235.618 172.189C231.263 162.935 210.845 143.337 210.845 143.337L181.175 132.177Z" fill="#2E3054"/>
<path d="M307.31 159.804C307.31 166.646 304.998 172.189 302.144 172.189C299.279 172.189 283.091 168.925 283.091 160.756C283.091 152.591 299.279 147.418 302.144 147.418C304.998 147.418 307.31 152.963 307.31 159.804Z" fill="#DE6264"/>
<path d="M307.31 159.804C307.31 166.646 304.998 172.189 302.144 172.189C299.279 172.189 296.967 166.646 296.967 159.804C296.967 152.963 299.279 147.418 302.144 147.418C304.998 147.418 307.31 152.963 307.31 159.804Z" fill="#D43E3A"/>
<path d="M239.157 92.4344C239.157 92.4344 256.029 82.0918 248.953 71.748C241.879 61.4031 231.535 61.402 226.091 75.0122C220.646 88.6236 222.439 87.5444 212.094 92.9889C201.749 98.4347 184.715 107.677 179.272 120.199C173.828 132.72 193.971 141.976 208.671 143.609C208.671 143.609 217.926 140.342 220.102 132.72C222.279 125.098 231.535 98.422 239.157 92.4344Z" fill="#ECB49F"/>
<path d="M219.798 88.2393C218.075 86.8621 215.798 90.8236 211.609 93.0062C201.097 98.4807 184.497 107.791 178.964 120.385C173.432 132.977 193.904 142.288 208.842 143.932C208.842 143.932 218.249 140.645 220.462 132.977C222.501 125.916 230.647 102.581 237.977 94.2454C238.602 93.5332 223.777 91.4241 219.798 88.2393Z" fill="#D43E3A"/>
<path d="M222.211 85.2811C222.211 85.2811 231.366 94.4352 238.955 92.9889L236.786 96.1208C236.786 96.1208 223.908 97.9019 216 90.6095L222.211 85.2811Z" fill="#2E3054"/>
<path d="M221.9 128.411C224.116 121.756 228.002 111.349 232.216 103.239C233.534 106.355 232.777 110.466 233.655 116.478C233.648 116.478 233.641 116.477 233.633 116.477C232.764 116.477 225.621 120.656 221.9 128.411Z" fill="#A5967A"/>
<path d="M221.771 128.683C217.477 118.462 214.71 103.509 218.719 99.6911C220.284 98.2022 221.594 97.4279 223.176 97.4279C224.623 97.4279 226.296 98.0745 228.596 99.4115C230.518 100.53 231.596 101.775 232.216 103.239C228.002 111.349 224.116 121.756 221.9 128.411C221.857 128.501 221.814 128.593 221.771 128.683Z" fill="#A5261C"/>
<path d="M300.683 220.097C300.683 233.026 290.201 243.509 277.269 243.509C264.336 243.509 253.854 233.026 253.854 220.097C253.854 207.168 264.336 196.685 277.269 196.685C290.201 196.685 300.683 207.168 300.683 220.097Z" fill="#DDE4EA"/>
<path d="M299.325 244.011C299.325 244.661 285.265 245.189 267.926 245.189C250.587 245.189 236.524 244.661 236.524 244.011C236.524 243.361 250.587 242.833 267.926 242.833C285.265 242.833 299.325 243.361 299.325 244.011Z" fill="#ABDBE6"/>
<path d="M300.683 220.097C300.683 233.026 290.201 243.509 277.269 243.509C264.336 243.509 253.854 233.026 253.854 220.097C253.854 207.168 264.336 196.685 277.269 196.685C290.201 196.685 300.683 207.168 300.683 220.097Z" fill="#596A83"/>
<path d="M289.361 220.097C289.361 226.775 283.942 232.19 277.269 232.19C270.595 232.19 265.176 226.775 265.176 220.097C265.176 213.42 270.595 208.005 277.269 208.005C283.942 208.005 289.361 213.42 289.361 220.097Z" fill="white"/>
<path d="M219.924 98.6509C213.604 103.823 221.992 124.63 231.244 133.34C240.501 142.052 246.859 139.892 258.227 136.955C267.201 134.634 269.64 132.72 273.449 135.987C277.269 139.253 275.635 131.087 270.457 128.637C265.291 126.188 260.93 130.815 251.404 131.905C241.879 132.992 240.068 126.834 237.292 119.413C233.898 108.769 237.126 102.073 229.8 98.4105C224.983 96.0011 222.919 96.2013 219.924 98.6509Z" fill="#ECB49F"/>
<path d="M300.833 199.739C295.425 192.909 287.06 188.522 277.671 188.522C261.356 188.522 248.136 201.744 248.136 218.056C248.136 222.074 248.941 225.902 250.391 229.395C257.582 229.761 267.374 227.339 277.2 222.274C289.707 215.822 298.716 206.914 300.833 199.739Z" fill="#D43E3A"/>
<path d="M283.286 205.846C279.294 205.846 276.072 202.617 276.072 198.632C276.072 194.648 279.294 191.417 283.286 191.417C284.506 191.417 285.668 191.723 286.681 192.264C285.403 192.664 284.483 193.854 284.483 195.259C284.483 196.993 285.887 198.396 287.624 198.396C288.752 198.396 289.741 197.801 290.293 196.907C290.42 197.46 290.5 198.037 290.5 198.632C290.5 202.617 287.267 205.846 283.286 205.846Z" fill="#E58B89"/>
<path d="M302.501 167.416C300.372 167.416 298.646 163.27 298.646 158.152C298.646 153.037 300.372 148.888 302.501 148.888C303.03 148.888 303.548 149.152 304.008 149.63C302.271 149.899 300.925 151.722 300.925 153.93C300.925 156.323 302.501 158.264 304.457 158.264C305.159 158.264 305.803 158.02 306.344 157.598C306.355 157.782 306.355 157.966 306.355 158.152C306.355 163.27 304.63 167.416 302.501 167.416Z" fill="#E58B89"/>
<path d="M307.149 156.743C306.839 153.839 306.102 151.344 305.113 149.669C306.758 150.044 308.001 151.809 308.001 153.93C308.001 155.003 307.678 155.986 307.149 156.743Z" fill="#E5F7FF"/>
<path d="M306.344 157.598C306.252 154.012 305.32 150.975 304.008 149.63C304.158 149.607 304.307 149.595 304.457 149.595C304.687 149.595 304.905 149.621 305.113 149.669C306.102 151.344 306.838 153.839 307.149 156.743C306.919 157.075 306.643 157.364 306.344 157.598Z" fill="#E58B89"/>
<path d="M304.457 158.264C302.501 158.264 300.925 156.323 300.925 153.93C300.925 151.722 302.271 149.899 304.008 149.63C305.32 150.975 306.252 154.012 306.344 157.598C305.803 158.02 305.159 158.264 304.457 158.264Z" fill="#EFB9B8"/>
<path d="M313.063 96.5684C309.082 96.5684 305.849 93.3387 305.849 89.3554C305.849 85.3686 309.082 82.1401 313.063 82.1401C317.056 82.1401 320.277 85.3686 320.277 89.3554C320.277 93.3387 317.056 96.5684 313.063 96.5684Z" fill="#E9F9FF"/>
<path d="M165.121 199.341C162.399 199.341 160.196 197.136 160.196 194.416C160.196 191.695 162.399 189.491 165.121 189.491C167.841 189.491 170.047 191.695 170.047 194.416C170.047 197.136 167.841 199.341 165.121 199.341Z" fill="#EBA1A2"/>
<path d="M172.225 190.542C171.101 190.542 170.19 189.631 170.19 188.507C170.19 187.384 171.101 186.473 172.225 186.473C173.35 186.473 174.259 187.384 174.259 188.507C174.259 189.631 173.35 190.542 172.225 190.542Z" fill="#EBA1A2"/>
<path d="M290.293 196.907C289.798 194.897 288.464 193.217 286.68 192.264C286.98 192.17 287.29 192.121 287.624 192.121C289.35 192.121 290.753 193.526 290.753 195.259C290.753 195.864 290.581 196.429 290.293 196.907Z" fill="#E58B89"/>
<path d="M287.624 198.396C285.887 198.396 284.483 196.992 284.483 195.259C284.483 193.854 285.403 192.664 286.681 192.264C288.464 193.217 289.799 194.897 290.293 196.907C289.741 197.801 288.752 198.396 287.624 198.396Z" fill="#EFB9B8"/>
<path d="M222.211 85.2811C222.211 85.2811 211.392 83.4505 198.327 77.4629C185.26 71.4741 163.21 62.602 145.244 70.2246C145.244 70.2246 160.421 76.7277 155.329 86.2971C154.651 87.0818 167.294 81.2736 180.087 85.357C192.88 89.4393 208.67 94.6124 216.563 90.5289L222.211 85.2811Z" fill="#2E3054"/>
<path d="M199.626 60.1099C197.672 60.1099 196.088 58.5255 196.088 56.5718C196.088 54.6181 197.672 53.0327 199.626 53.0327C201.582 53.0327 203.166 54.6181 203.166 56.5718C203.166 58.5255 201.582 60.1099 199.626 60.1099Z" fill="#E9F9FF"/>
<path d="M272.367 110.127C272.367 111.179 271.516 112.033 270.457 112.033C269.41 112.033 268.559 111.179 268.559 110.127C268.559 109.074 269.41 108.223 270.457 108.223C271.516 108.223 272.367 109.074 272.367 110.127Z" fill="#ABDBE6"/>
<path d="M202.667 208.619L198.985 214.69C198.985 214.69 204.146 221.697 209.174 222.535C214.203 223.372 204.088 217.23 208.492 212.706C212.899 208.182 202.667 208.619 202.667 208.619Z" fill="white"/>
<path d="M236.008 114.064C234.717 106.467 235.811 101.415 229.8 98.4105C224.983 96.0012 222.919 96.2013 219.924 98.6509C215.917 101.931 217.827 111.499 222.119 120.283C225.833 113.408 235.23 114.003 236.008 114.064Z" fill="#DE6264"/>
<path d="M153.973 210.912H113.75C113.183 210.912 112.722 210.535 112.722 210.069C112.722 209.603 113.183 209.224 113.75 209.224H153.973C154.541 209.224 155 209.603 155 210.069C155 210.535 154.541 210.912 153.973 210.912Z" fill="#EBA1A2"/>
<path d="M248.631 223.437H189.899C189.053 223.437 188.365 223.061 188.365 222.595C188.365 222.128 189.053 221.752 189.899 221.752H206.852C207.616 222.128 208.397 222.405 209.174 222.535C209.488 222.587 209.742 222.612 209.945 222.612C210.668 222.612 210.736 222.294 210.473 221.752H248.366C248.435 222.319 248.527 222.882 248.631 223.437Z" fill="#E58B89"/>
<path d="M250.011 223.437H248.631C248.527 222.882 248.435 222.319 248.366 221.752H250.011C250.851 221.752 251.542 222.128 251.542 222.595C251.542 223.061 250.851 223.437 250.011 223.437Z" fill="#E58B89"/>
<path d="M209.945 222.613C209.742 222.613 209.488 222.587 209.174 222.535C208.397 222.405 207.616 222.128 206.852 221.752H210.473C210.736 222.294 210.668 222.613 209.945 222.613Z" fill="white"/>
<path d="M139.824 216.934H106.82C106.354 216.934 105.977 216.556 105.977 216.091C105.977 215.625 106.354 215.248 106.82 215.248H139.824C140.289 215.248 140.666 215.625 140.666 216.091C140.666 216.556 140.289 216.934 139.824 216.934Z" fill="#EBA1A2"/>
<path d="M185.254 130.897C181.531 126.75 179.704 122.443 178.973 120.364C178.865 120.613 178.775 120.838 178.692 121.064C179.543 123.33 181.391 127.356 184.87 131.238C189.346 136.234 197.447 141.949 211.08 141.949C211.681 141.949 212.297 141.932 212.921 141.909C213.209 141.735 213.502 141.546 213.799 141.344C198.704 142.156 189.949 136.13 185.254 130.897Z" fill="#ACD0EF"/>
<path d="M334.165 240.117C332.819 226.597 330.195 212.463 331.588 198.755C331.967 195.01 335.154 178.272 341.183 182.126C346.027 185.222 342.84 196.537 342.806 201.239C342.714 213.891 340.206 227.551 336.754 239.252L334.165 240.117Z" fill="#ABDBE6"/>
<path d="M52.4861 175.746C42.8201 172.905 35.9867 164.2 36.6012 153.882C36.9279 148.39 39.3798 149.076 42.7165 145.755C46.2545 142.234 44.3181 140.905 41.322 136.998C35.836 129.848 30.6768 121.806 32.909 112.281C35.0214 103.265 45.6966 103.418 43.3367 93.9981C40.3038 81.8847 41.5084 69.8439 42.9086 57.4015C43.7279 50.1229 46.3811 32.3521 56.3946 32.0806C65.8386 31.8274 65.3831 49.4417 65.5764 55.4086C65.7559 60.9706 64.5742 64.8181 68.8417 67.9535C74.3058 71.9656 80.6305 73.2933 81.7696 81.3106C83.1123 90.7638 72.6489 94.7448 72.1277 103.135C71.6974 110.092 81.6684 114.124 85.211 119.854C91.8625 130.614 78.9104 130.688 77.822 139.28C77.7483 139.86 77.402 140.209 77.1385 140.69C80.7697 143.431 85.7747 144.888 87.8446 149.305C90.2505 154.442 88.4913 159.709 84.9429 163.664C77.807 171.614 64.4073 178.615 53.6885 176.065C53.2835 175.968 52.8831 175.862 52.4861 175.746Z" fill="#5FA469"/>
<path d="M74.9178 238.134C74.9178 238.921 67.0029 239.561 57.239 239.561C47.4752 239.561 39.5615 238.921 39.5615 238.134C39.5615 237.343 47.4752 236.706 57.239 236.706C67.0029 236.706 74.9178 237.343 74.9178 238.134Z" fill="#ABDBE6"/>
<path d="M56.634 232.903H56.1542V220.72C56.3141 220.792 56.474 220.866 56.634 220.937V232.903Z" fill="white"/>
<path d="M56.634 220.937C56.474 220.866 56.3141 220.792 56.1542 220.72V176.482C56.3141 176.499 56.474 176.514 56.634 176.527V220.937Z" fill="#E5F7FF"/>
<path d="M56.634 176.527C56.474 176.514 56.3141 176.499 56.1542 176.482V157.284L56.4776 157.607L56.634 157.45V164.979L56.2255 165.388L56.5638 165.727L56.634 165.656V172.591L56.2255 173L56.5638 173.339L56.634 173.269V176.527ZM56.634 157.087L56.1542 156.606V122.772L56.4776 123.096L56.634 122.939V130.975L56.2255 131.385L56.5638 131.723L56.634 131.652V135.543L56.2255 135.953L56.5638 136.291L56.634 136.221V144.679L56.2255 145.087L56.5638 145.427L56.634 145.355V157.087ZM56.634 122.575L56.1542 122.095V117.189L56.4776 117.512L56.634 117.356V122.575ZM56.634 116.992L56.1542 116.513V86.2304L56.4776 86.5549L56.634 86.3984V96.4637L56.2255 96.8733L56.5638 97.2116L56.634 97.1414V104.077L56.2255 104.486L56.5638 104.825L56.634 104.754V116.992ZM56.634 86.0336L56.1542 85.5539V81.1564L56.4776 81.4796L56.634 81.3232V86.0336ZM56.634 80.9584L56.1542 80.4787V54.7642L56.4776 55.0876L56.634 54.9322V63.4753L56.2255 63.8849L56.5638 64.2232L56.634 64.153V80.9584Z" fill="#9FC8A5"/>
<path d="M56.1542 32.0909V32.0805H56.3946C56.3141 32.0828 56.2336 32.0862 56.1542 32.0909Z" fill="white"/>
<path d="M56.634 54.5675L56.1542 54.0877V32.0908C56.2336 32.0862 56.3141 32.0828 56.3946 32.0805H56.634V54.5675Z" fill="#9FC8A5"/>
<path d="M81.4983 79.8895C81.4901 79.8559 81.4819 79.8222 81.4727 79.7886C81.4819 79.8222 81.4901 79.8559 81.4983 79.8895Z" fill="white"/>
<path d="M56.5639 104.825L56.2256 104.486L56.634 104.077L81.352 79.3569C81.3934 79.4995 81.4348 79.6422 81.4728 79.7895C81.482 79.8228 81.4901 79.8562 81.4982 79.8896L56.634 104.754L56.5639 104.825Z" fill="#9FC8A5"/>
<path d="M56.5639 97.2116L56.2256 96.8732L56.634 96.4637L78.548 74.5485C78.6608 74.6636 78.769 74.7798 78.8771 74.8983L56.634 97.1413L56.5639 97.2116Z" fill="#9FC8A5"/>
<path d="M76.7151 111.531C76.6047 111.428 76.4942 111.326 76.3849 111.222L76.386 111.221C76.4965 111.325 76.6058 111.428 76.7151 111.531Z" fill="#E5F7FF"/>
<path d="M56.5639 131.723L56.2256 131.385L56.634 130.975L76.385 111.222C76.4943 111.326 76.6047 111.428 76.7152 111.531C76.7221 111.538 76.729 111.543 76.7359 111.55L56.634 131.652L56.5639 131.723Z" fill="#9FC8A5"/>
<path d="M56.5639 64.2232L56.2256 63.8849L56.634 63.4753L65.5534 54.556V54.5583C65.558 54.7895 65.5637 55.0093 65.5695 55.2175L56.634 64.153L56.5639 64.2232Z" fill="#9FC8A5"/>
<path d="M56.5639 136.291L56.2256 135.953L56.634 135.543L78.8047 113.372C78.9255 113.476 79.0485 113.58 79.1705 113.683L56.634 136.221L56.5639 136.291Z" fill="#9FC8A5"/>
<path d="M56.5639 173.339L56.2256 173L56.634 172.591L81.8537 147.371L82.1919 147.709L56.634 173.269L56.5639 173.339Z" fill="#9FC8A5"/>
<path d="M56.5639 145.427L56.2256 145.087L56.634 144.679L81.8537 119.458L82.1919 119.796L56.634 145.355L56.5639 145.427Z" fill="#9FC8A5"/>
<path d="M41.0839 102.119L41.0815 102.118C41.1966 102.004 41.3071 101.889 41.4164 101.774L41.4186 101.776C41.3093 101.891 41.1978 102.006 41.0839 102.119Z" fill="white"/>
<path d="M56.4775 117.512L56.1541 117.189L41.0839 102.119C41.1978 102.006 41.3093 101.891 41.4186 101.776L56.1541 116.513L56.6339 116.992L56.8157 117.174L56.6339 117.356L56.4775 117.512Z" fill="#9FC8A5"/>
<path d="M56.4776 123.096L56.1542 122.772L38.105 104.723C38.2258 104.617 38.3478 104.513 38.4709 104.411L56.1542 122.095L56.634 122.575L56.8158 122.757L56.634 122.939L56.4776 123.096Z" fill="#9FC8A5"/>
<path d="M43.6232 144.753V144.751C43.7279 144.619 43.8234 144.489 43.9097 144.361L43.9121 144.364C43.8246 144.49 43.729 144.62 43.6232 144.753Z" fill="#E5F7FF"/>
<path d="M56.4776 157.607L56.1542 157.284L43.6232 144.753C43.729 144.62 43.8246 144.49 43.9121 144.364L56.1542 156.606L56.634 157.087L56.8158 157.269L56.634 157.45L56.4776 157.607Z" fill="#9FC8A5"/>
<path d="M79.8424 142.448C79.6997 142.364 79.5581 142.281 79.4166 142.196H79.4179C79.5582 142.28 79.7009 142.364 79.8436 142.447L79.8424 142.448Z" fill="#E5F7FF"/>
<path d="M56.5639 165.727L56.2256 165.388L56.634 164.979L79.4179 142.196C79.5583 142.281 79.6998 142.364 79.8424 142.448L56.634 165.656L56.5639 165.727Z" fill="#9FC8A5"/>
<path d="M56.4776 55.0875L56.1542 54.7642L45.5137 44.1248C45.5677 43.9534 45.6252 43.7842 45.6804 43.6139L56.1542 54.0877L56.634 54.5675L56.8158 54.7493L56.634 54.9322L56.4776 55.0875Z" fill="#9FC8A5"/>
<path d="M56.4776 81.4796L56.1542 81.1563L41.9376 66.9385C41.9537 66.7314 41.9721 66.5221 41.9905 66.3138L56.1542 80.4786L56.634 80.9584L56.8158 81.1402L56.634 81.3231L56.4776 81.4796Z" fill="#9FC8A5"/>
<path d="M56.4776 86.5549L56.1542 86.2304L41.6085 71.6859C41.62 71.4708 41.6315 71.2567 41.643 71.0427L56.1542 85.5539L56.634 86.0337L56.8158 86.2155L56.634 86.3984L56.4776 86.5549Z" fill="#9FC8A5"/>
<path d="M57.0815 232.903H56.2957V175.318H57.0815V232.903Z" fill="#5FA469"/>
<path d="M59.4379 237.117C59.4379 237.117 45.593 187.524 36.7323 209.177C27.8706 230.83 59.4379 237.117 59.4379 237.117Z" fill="#ABDBE6"/>
<path d="M72.711 186.282C70.7688 186.282 69.0118 187.099 67.4896 188.711C58.9626 197.732 59.5782 228.741 59.8497 236.048C63.9803 229.288 82.1756 198.554 77.6262 189.009C76.8795 187.44 75.5598 186.565 73.5923 186.335C73.2955 186.299 72.9986 186.282 72.711 186.282ZM59.0443 239.144L58.9604 237.653C58.8706 236.061 56.8686 198.552 66.7901 188.051C68.753 185.976 71.0897 185.074 73.705 185.382C75.9924 185.652 77.6044 186.733 78.4915 188.596C83.8153 199.764 60.8254 236.33 59.844 237.881L59.0443 239.144Z" fill="#5FA469"/>
<path d="M344.681 211.328C341.621 211.328 340.298 218.643 339.596 222.572C339.412 223.602 339.251 224.493 339.101 225.085C338.664 226.753 338.169 228.484 337.686 230.157C336.616 233.862 335.511 237.686 334.982 241.328L342.553 240.132L342.979 239.932C345.567 238.725 348.237 237.477 349.537 235.054C350.331 233.575 350.492 232.169 349.963 231.289C349.64 230.748 349.077 230.451 348.363 230.451C347.765 230.451 346.787 230.66 345.51 231.656L344.221 232.666L344.842 231.152C346.902 226.145 351.125 214.222 345.878 211.639C345.452 211.432 345.061 211.328 344.681 211.328ZM333.969 242.362L334.05 241.79C334.545 237.914 335.718 233.849 336.857 229.918C337.329 228.25 337.824 226.526 338.261 224.868C338.399 224.307 338.56 223.432 338.744 222.42C339.596 217.658 340.896 210.463 344.681 210.463C345.188 210.463 345.717 210.598 346.258 210.864C351.585 213.488 348.731 223.595 346.154 230.203C346.925 229.798 347.673 229.587 348.363 229.587C349.376 229.587 350.227 230.046 350.71 230.846C351.401 232.006 351.251 233.688 350.296 235.462C348.858 238.137 345.936 239.508 343.347 240.716L342.748 240.976L333.969 242.362Z" fill="#5FA469"/>
<path d="M335.764 242.552C337.663 233.835 333.359 219.708 329.908 211.326C328.792 208.588 322.671 199.519 318.816 201.381C315.146 203.154 320.231 212.819 321.635 215.063C320.634 213.762 318.528 212.632 316.446 212.668C312.672 212.729 313.477 213.456 313.857 216.552C314.432 221.332 318.057 223.99 321.371 226.816C318.908 225.89 314.985 226.053 315.111 229.653C315.249 233.252 335.764 242.552 335.764 242.552Z" fill="#5FA469"/>
<path d="M119.87 114.943L100.64 113.169L119.87 111.984V114.943Z" fill="#E9F9FF"/>
<path d="M113.772 129.366L96.7329 127.792L113.772 126.745V129.366Z" fill="#E9F9FF"/>
<path d="M117.994 123.263L88.917 121.489L117.994 120.306V123.263Z" fill="#E9F9FF"/>
<path d="M250.621 72.0126C250.621 72.0126 255.891 72.7869 253.141 76.1501C250.391 79.5133 244.929 72.9354 239.697 74.7878C234.465 76.6403 241.872 71.4132 250.621 72.0126Z" fill="#2E3054"/>
<path d="M233.004 82.7465C233.004 82.7465 229.519 85.5527 222.77 84.5885L223.012 80.0081L232.172 82.4185L233.004 82.7465Z" fill="#2E3054"/>
<path d="M250.621 72.0127C249.701 72.4936 249.942 72.5454 247.779 72.5017C244.243 72.4315 237.803 73.039 235.031 80.0944C234.638 81.0908 235.344 82.2667 233.487 83.2286C231.627 84.1881 228.371 83.7763 228.371 83.7763L223.012 83.1423C223.012 83.1423 211.477 67.1963 228.315 59.9994C239.732 55.1209 247.572 63.7998 249.908 68.7692C251.012 71.129 251.553 71.5317 250.621 72.0127Z" fill="#FFD72D"/>
<path d="M245.652 63.8907C246.537 64.7916 246.836 65.9387 246.318 66.4519C245.789 66.965 244.65 66.6521 243.762 65.7512C242.875 64.8503 242.58 63.7032 243.101 63.1888C243.621 62.6757 244.763 62.9898 245.652 63.8907Z" fill="white"/>
<path d="M239.744 70.2983C236.315 72.2175 234.06 74.9627 232.853 78.6895C232.103 81.0114 227.27 81.7086 221.416 80.4223C221.511 80.6167 221.608 80.8008 221.702 80.9769C223.547 81.3589 225.276 81.5498 226.81 81.5487C230.27 81.5487 232.742 80.6018 233.313 78.8391C234.496 75.1814 236.614 72.6006 239.979 70.7183C243.026 69.0131 247.733 68.8509 249.954 68.8796L249.908 68.7692C249.85 68.6449 249.781 68.5172 249.712 68.3883C247.376 68.3688 242.819 68.577 239.744 70.2983Z" fill="white"/>
<path d="M187.424 25.9077C187.424 40.2152 175.201 51.8142 160.123 51.8142C145.044 51.8142 132.82 40.2152 132.82 25.9077C132.82 11.599 145.044 -3.8147e-06 160.123 -3.8147e-06C175.201 -3.8147e-06 187.424 11.599 187.424 25.9077Z" fill="#ABDBE6"/>
<path d="M185.262 26.0952C185.262 38.6101 175.12 48.7524 162.604 48.7524C150.091 48.7524 139.949 38.6101 139.949 26.0952C139.949 13.5814 150.091 3.43789 162.604 3.43789C175.12 3.43789 185.262 13.5814 185.262 26.0952Z" fill="white"/>
<path d="M162.712 24.3129L174.67 12.356L163.51 29.4939L162.712 24.3129Z" fill="#2E3054"/>
<path d="M162.712 24.3129L153.147 20.3272L163.511 29.4939L165.104 27.103L162.712 24.3129Z" fill="#2E3054"/>
<path d="M164.063 8.76858C164.063 9.57399 163.41 10.2264 162.605 10.2264C161.801 10.2264 161.148 9.57399 161.148 8.76858C161.148 7.96318 161.801 7.31193 162.605 7.31193C163.41 7.31193 164.063 7.96318 164.063 8.76858Z" fill="#4F5A79"/>
<path d="M164.063 42.7845C164.063 43.5887 163.41 44.2422 162.605 44.2422C161.801 44.2422 161.148 43.5887 161.148 42.7845C161.148 41.9791 161.801 41.3278 162.605 41.3278C163.41 41.3278 164.063 41.9791 164.063 42.7845Z" fill="#4F5A79"/>
<path d="M179.614 27.2331C178.809 27.2331 178.156 26.5807 178.156 25.7765C178.156 24.9722 178.809 24.3187 179.614 24.3187C180.418 24.3187 181.071 24.9722 181.071 25.7765C181.071 26.5807 180.418 27.2331 179.614 27.2331Z" fill="#4F5A79"/>
<path d="M145.597 27.2331C144.793 27.2331 144.141 26.5807 144.141 25.7765C144.141 24.9722 144.793 24.3187 145.597 24.3187C146.404 24.3187 147.055 24.9722 147.055 25.7765C147.055 26.5807 146.404 27.2331 145.597 27.2331Z" fill="#4F5A79"/>
<path d="M130.828 7.17385V13.5515L81.803 9.72581L130.828 7.17385Z" fill="#ABDBE6"/>
<path d="M118.471 17.9364V24.3129L69.448 20.4873L118.471 17.9364Z" fill="#ABDBE6"/>
<path d="M123.757 150.785H176.565V107.213H123.757V150.785Z" fill="#FFD72D"/>
<path d="M123.757 112.808H176.565V107.213H123.757V112.808Z" fill="#FFEB96"/>
<path d="M151.291 137.734C151.291 137.734 152.763 145.977 157.769 146.271C157.769 146.271 155.807 147.645 150.017 147.546C144.226 147.448 142.754 146.271 142.754 146.271C147.758 145.977 149.231 137.734 149.231 137.734H151.291Z" fill="#596A83"/>
<path d="M170.216 135.5C170.216 137.159 161.274 139.112 150.252 139.112C139.231 139.112 130.305 137.159 130.305 135.5C130.305 133.843 139.239 132.499 150.26 132.499C161.279 132.499 170.216 133.843 170.216 135.5Z" fill="#727F9C"/>
<path d="M167.217 134.012C167.196 124.747 159.688 117.251 150.43 117.251C141.17 117.251 133.66 124.747 133.64 134C133.763 135.439 141.232 136.567 150.43 136.567C159.627 136.567 167.095 135.439 167.212 134.041L167.217 134.012Z" fill="#596A83"/>
<path d="M152.698 115.907C152.698 116.958 151.846 117.811 150.795 117.811C149.744 117.811 148.892 116.958 148.892 115.907C148.892 114.857 149.744 114.006 150.795 114.006C151.846 114.006 152.698 114.857 152.698 115.907Z" fill="#596A83"/>
<path d="M142.175 134.6C142.175 134.6 139.041 134.377 136.803 133.928C137.025 129.003 138.595 120.497 149.117 118.93C149.117 118.93 142.398 122.736 142.175 134.6Z" fill="#ACB5C1"/>
<path d="M150.29 105.725L150.248 105.557C150.027 104.693 149.704 103.457 149.258 102.015C149.035 101.294 148.772 100.523 148.472 99.7279C148.168 98.9397 147.799 98.1309 147.368 97.3772C147.15 97.0068 146.91 96.6478 146.649 96.3486C146.382 96.0621 146.102 95.7906 145.841 95.6697C145.579 95.5409 145.355 95.5053 145.089 95.5409L144.878 95.5904L144.697 95.6651L144.605 95.6939L144.445 95.7894L144.115 95.9908C144.105 96 144 96.0655 144.134 95.9792L144.059 96.0414L143.945 96.1289L143.728 96.3072C143.612 96.4337 143.481 96.5523 143.413 96.6823C143.25 96.9389 143.152 97.177 143.166 97.4842C143.171 98.0883 143.491 98.8879 143.977 99.5909C144.459 100.3 145.026 100.975 145.607 101.585C146.195 102.189 146.783 102.752 147.342 103.256C148.467 104.261 149.457 105.061 150.152 105.617L150.29 105.725ZM150.801 107.25C150.801 107.25 150.313 107.038 149.504 106.612C148.696 106.179 147.552 105.538 146.258 104.619C145.607 104.163 144.917 103.644 144.226 103.028C143.534 102.41 142.818 101.72 142.183 100.855C141.86 100.426 141.561 99.9476 141.305 99.4045C141.047 98.8649 140.865 98.2183 140.845 97.5107C140.805 96.7996 141.047 96.023 141.431 95.4224C141.618 95.1025 141.853 94.8574 142.088 94.6101C142.204 94.4777 142.335 94.3949 142.458 94.2867L142.648 94.136L142.743 94.0601L142.858 93.9807L143.232 93.7598L143.404 93.6597L143.67 93.5412C143.845 93.4698 144.023 93.3881 144.204 93.3375C144.382 93.2938 144.564 93.2558 144.746 93.2213C145.496 93.1097 146.316 93.2765 146.944 93.6275C147.593 93.968 148.021 94.4478 148.398 94.9092C148.766 95.3775 149.048 95.8561 149.293 96.3267C149.786 97.2725 150.099 98.2079 150.361 99.0927C150.625 99.9764 150.803 100.82 150.946 101.598C151.241 103.154 151.357 104.459 151.418 105.373C151.452 105.829 151.456 106.191 151.465 106.436C151.47 106.683 151.472 106.817 151.472 106.817C151.477 107.077 151.271 107.292 151.012 107.295L150.817 107.257L150.801 107.25Z" fill="#D43E3A"/>
<path d="M151.574 106.471C151.574 106.471 151.959 106.191 152.631 105.693C153.301 105.201 154.259 104.495 155.387 103.642C155.949 103.211 156.547 102.737 157.17 102.235C157.791 101.732 158.419 101.175 159.032 100.599C159.637 100.025 160.231 99.3723 160.597 98.7591C160.795 98.4553 160.869 98.1585 160.864 98.0607L160.848 97.9893L160.876 98.0089L160.811 97.9398L160.673 97.826L160.602 97.7673C160.478 97.6706 160.682 97.8259 160.659 97.8098L160.57 97.7626L160.431 97.6948L160.16 97.6349C159.975 97.6223 159.695 97.7086 159.399 97.8605C158.801 98.1665 158.158 98.7349 157.602 99.3321C157.046 99.9396 156.521 100.582 156.044 101.214C155.576 101.854 155.139 102.474 154.744 103.057C153.962 104.226 153.329 105.231 152.885 105.935C152.446 106.641 152.196 107.044 152.196 107.044L151.574 106.471ZM151.376 106.688C151.376 106.688 151.503 106.209 151.785 105.407C152.074 104.604 152.506 103.464 153.155 102.143C153.476 101.48 153.843 100.769 154.29 100.04C154.73 99.3079 155.226 98.5427 155.848 97.7983C156.154 97.4221 156.497 97.0516 156.875 96.688C157.262 96.3267 157.684 95.9735 158.225 95.6824C158.754 95.3948 159.393 95.1221 160.169 95.1267C160.548 95.1394 160.939 95.1946 161.297 95.3338C161.485 95.3867 161.642 95.4776 161.802 95.5674L162.041 95.7043L162.194 95.8124L162.297 95.8987L162.432 96.0149L162.504 96.0736L162.621 96.1979C162.783 96.3854 162.964 96.5948 163.063 96.802C163.155 97.0114 163.265 97.223 163.301 97.4451C163.336 97.6626 163.39 97.9076 163.369 98.1067C163.332 98.965 163.002 99.5737 162.695 100.056C162.378 100.552 162.025 100.958 161.667 101.321C161.313 101.693 160.944 102.016 160.582 102.325C159.86 102.947 159.118 103.457 158.412 103.927C157.71 104.4 157.022 104.802 156.385 105.161C155.111 105.881 154.012 106.4 153.236 106.745C152.459 107.09 151.995 107.258 151.995 107.258C151.749 107.349 151.478 107.222 151.388 106.977L151.375 106.691L151.376 106.688Z" fill="#D43E3A"/>
<path d="M143.518 109.156C139.775 109.156 136.35 107.179 133.169 103.21C127.397 96.0092 121.482 96.2037 112.426 97.3773C111.936 97.4429 111.485 97.0942 111.419 96.6017C111.357 96.1104 111.703 95.6617 112.195 95.5973C121.591 94.3811 128.225 94.1752 134.569 102.088C139.142 107.792 144.043 108.816 149.992 105.311C150.42 105.059 150.969 105.201 151.221 105.628C151.472 106.055 151.33 106.605 150.904 106.858C148.306 108.387 145.849 109.156 143.518 109.156Z" fill="#D43E3A"/>
</svg>
