<svg width="271" height="278" viewBox="0 0 271 278" fill="none" xmlns="http://www.w3.org/2000/svg">
<path d="M52.7336 10.923C18.1788 24.2926 1.87759 55.0909 0.0648055 91.7504C-0.609407 105.394 3.99115 118.5 13.2081 128.492C21.8143 137.823 30.4631 140.751 33.2692 153.768C38.2999 177.11 14.5233 198.973 31.2484 220.725C42.9187 235.902 56.1341 251.405 74.3796 254.8C83.474 256.491 98.4905 255.985 111.899 255.52C122.404 255.157 139.42 253.278 150.137 256.963C165.11 262.111 178.593 269.117 194.311 271.598C208.847 273.89 231.677 281.798 244.481 270.855C254.618 262.191 255.679 248.861 253.553 236.784C250.931 221.887 251.397 206.444 246.914 191.525C241.413 173.217 258.718 160.553 265.04 143.861C269.075 133.208 270.525 120.257 269.913 108.326C269.289 96.1474 269.167 83.8839 263.299 73.1324C258.618 64.5526 250.515 54.556 244.102 46.8225C234.243 34.9324 221.841 25.5174 208.265 18.2537C192.246 9.67992 177.493 0.594681 159.52 0.099472C122.315 -0.92543 64.9483 6.19618 52.7336 10.923Z" fill="#D3F2FF"/>
<path d="M87.3291 150.981C78.5645 140.375 73.2969 126.77 73.2969 111.937C73.2969 93.8896 81.0923 77.6634 93.4999 66.441V72.4708C83.6698 82.7129 77.6269 96.6203 77.6269 111.937C77.6269 124.843 81.9153 136.746 89.1466 146.301C88.5864 147.959 87.9775 149.521 87.3291 150.981ZM186.748 144.276C186.016 144.068 185.347 143.898 184.754 143.761C184.064 143.306 183.388 142.898 182.729 142.533C188.363 133.693 191.627 123.197 191.627 111.937C191.627 98.7605 187.155 86.6269 179.647 76.9723C180.321 75.091 180.815 73.3577 181.056 71.865C190.34 82.6134 195.957 96.6203 195.957 111.937C195.957 123.806 192.585 134.887 186.748 144.276ZM89.9086 143.877C83.4679 134.876 79.6777 123.85 79.6777 111.937C79.6777 97.9547 84.8987 85.193 93.4999 75.4948V98.384C92.0955 102.648 91.3364 107.203 91.3364 111.937C91.3364 116.671 92.0955 121.226 93.4999 125.49V125.678C93.0453 127.086 92.6262 129.016 92.3248 131.665C91.8184 136.108 90.9833 140.198 89.9086 143.877ZM180.891 141.6C177.052 139.831 173.921 139.492 172.1 139.489C171.28 138.875 170.485 138.33 169.718 137.848C173.273 133.991 176.762 128.503 178.532 123.349C179.616 120.19 179.053 117.407 177.805 115.093C177.88 114.051 177.919 112.999 177.919 111.937C177.919 104.568 176.077 97.629 172.829 91.5545C175.027 87.4884 177.201 83.1391 178.784 79.2271C185.566 88.3661 189.577 99.6829 189.577 111.937C189.577 122.864 186.389 133.043 180.891 141.6ZM168.999 73.5516V69.0622C169.589 69.5371 170.173 70.0252 170.744 70.5235C170.148 71.4479 169.565 72.4647 168.999 73.5516ZM171.927 68.8349C170.979 68.014 170 67.2204 168.999 66.4623V63.3632C168.999 62.0004 167.908 60.8963 166.563 60.8963H160.028C152.381 57.0828 143.753 54.9376 134.626 54.9376C125.501 54.9376 116.873 57.0828 109.225 60.8963H100.613C110.346 54.3977 122.045 50.6076 134.626 50.6076C150.128 50.6076 164.286 56.3583 175.083 65.8433C174.028 66.4471 172.965 67.4832 171.927 68.8349ZM155.02 60.8963H114.234C120.539 58.3746 127.422 56.9875 134.626 56.9875C141.832 56.9875 148.715 58.3746 155.02 60.8963Z" fill="#EDFAFF"/>
<path d="M177.919 111.937C177.919 135.845 158.535 155.228 134.626 155.228C110.719 155.228 91.3364 135.845 91.3364 111.937C91.3364 88.0283 110.719 68.6462 134.626 68.6462C158.535 68.6462 177.919 88.0283 177.919 111.937Z" fill="#ABDBE6"/>
<path d="M134.626 166.887C104.28 166.887 79.6777 142.285 79.6777 111.937C79.6777 81.5896 104.28 56.9875 134.626 56.9875C164.975 56.9875 189.577 81.5896 189.577 111.937C189.577 142.285 164.975 166.887 134.626 166.887ZM134.626 54.9376C103.146 54.9376 77.6269 80.4571 77.6269 111.937C77.6269 143.417 103.146 168.938 134.626 168.938C166.107 168.938 191.627 143.417 191.627 111.937C191.627 80.4571 166.107 54.9376 134.626 54.9376Z" fill="#ABDBE6"/>
<path d="M71.6996 62.6975C71.6996 63.3115 71.2947 63.8098 70.7955 63.8098C70.2962 63.8098 69.8913 63.3115 69.8913 62.6975V59.0819C69.8913 58.468 70.2962 57.9697 70.7955 57.9697C71.2947 57.9697 71.6996 58.468 71.6996 59.0819V62.6975Z" fill="#ABDBE6"/>
<path d="M71.6996 48.5162C71.6996 49.1311 71.2947 49.6284 70.7955 49.6284C70.2962 49.6284 69.8913 49.1311 69.8913 48.5162V44.9016C69.8913 44.2876 70.2962 43.7894 70.7955 43.7894C71.2947 43.7894 71.6996 44.2876 71.6996 44.9016V48.5162Z" fill="#ABDBE6"/>
<path d="M78.9542 57.4654C79.4849 57.7729 79.7142 58.3726 79.4636 58.8039C79.215 59.2362 78.5818 59.3386 78.05 59.0312L74.9195 57.2239C74.3887 56.9164 74.1574 56.3167 74.408 55.8844C74.6577 55.4521 75.2919 55.3516 75.8226 55.6581L78.9542 57.4654Z" fill="#ABDBE6"/>
<path d="M66.6725 50.3753C67.2052 50.6827 67.4335 51.2814 67.1839 51.7137C66.9332 52.146 66.301 52.2475 65.7683 51.941L62.6387 50.1338C62.107 49.8263 61.8767 49.2265 62.1273 48.7952C62.3769 48.3619 63.0101 48.2605 63.5429 48.5679L66.6725 50.3753Z" fill="#ABDBE6"/>
<path d="M78.05 48.568C78.5818 48.2605 79.215 48.362 79.4636 48.7943C79.7142 49.2255 79.4849 49.8253 78.9542 50.1338L75.8226 51.9401C75.2919 52.2475 74.6577 52.1461 74.408 51.7138C74.1574 51.2815 74.3887 50.6828 74.9195 50.3753L78.05 48.568Z" fill="#ABDBE6"/>
<path d="M65.7683 55.6582C66.301 55.3517 66.9332 55.4522 67.1839 55.8844C67.4335 56.3167 67.2052 56.9165 66.6725 57.2229L63.5429 59.0302C63.0101 59.3377 62.3759 59.2362 62.1273 58.8039C61.8767 58.3716 62.107 57.7729 62.6387 57.4655L65.7683 55.6582Z" fill="#ABDBE6"/>
<path d="M59.4016 204.387C58.6558 204.387 57.8978 204.304 57.1397 204.131C51.6671 202.883 48.23 197.417 49.4772 191.945C50.7254 186.473 56.1929 183.035 61.6636 184.282C62.0756 184.378 62.3343 184.787 62.241 185.2C62.1466 185.611 61.7387 185.87 61.3246 185.775C56.678 184.717 52.0314 187.635 50.9689 192.286C49.9095 196.934 52.83 201.579 57.4797 202.639C62.1273 203.698 66.7739 200.778 67.8334 196.129C68.1479 194.752 68.1205 193.308 67.7542 191.954C67.6436 191.546 67.8841 191.126 68.2931 191.015C68.6979 190.905 69.1211 191.145 69.2317 191.554C69.663 193.149 69.6955 194.849 69.3251 196.47C68.2515 201.183 64.0462 204.387 59.4016 204.387Z" fill="#D43E3A"/>
<path d="M59.2839 196.401C59.0941 196.401 58.9125 196.331 58.7704 196.204L53.2196 191.181C52.9071 190.897 52.8817 190.413 53.1659 190.1C53.449 189.787 53.932 189.762 54.2456 190.046L59.2281 194.552L71.8234 180.49C72.1045 180.175 72.5886 180.148 72.9031 180.43C73.2177 180.712 73.2451 181.196 72.962 181.51L59.8542 196.147C59.7192 196.298 59.5275 196.388 59.3245 196.401H59.2839Z" fill="#D43E3A"/>
<path d="M155.271 42.395L152.498 41.0505L149.818 42.5726L150.239 39.5202L147.961 37.441L150.996 36.898L152.27 34.0902L153.723 36.8077L156.787 37.1527L154.651 39.3741L155.271 42.395Z" fill="#FFD72D"/>
<path d="M166.568 42.395L163.794 41.0505L161.113 42.5726L161.535 39.5202L159.257 37.441L162.293 36.898L163.567 34.0902L165.02 36.8077L168.084 37.1527L165.947 39.3741L166.568 42.395Z" fill="#FFD72D"/>
<path d="M177.865 42.395L175.09 41.0505L172.409 42.5726L172.832 39.5202L170.554 37.441L173.59 36.898L174.863 34.0902L176.317 36.8077L179.382 37.1527L177.245 39.3741L177.865 42.395Z" fill="#FFD72D"/>
<path d="M189.161 42.395L186.388 41.0505L183.707 42.5726L184.128 39.5202L181.851 37.441L184.886 36.898L186.16 34.0902L187.613 36.8077L190.676 37.1527L188.54 39.3741L189.161 42.395Z" fill="#FFD72D"/>
<path d="M200.901 42.395L198.129 41.0505L195.447 42.5726L195.869 39.5202L193.591 37.441L196.626 36.898L197.899 34.0902L199.354 36.8077L202.417 37.1527L200.281 39.3741L200.901 42.395Z" fill="#FFD72D"/>
<path d="M106.999 32.4392C103.638 32.4392 100.912 29.7125 100.912 26.3506C100.912 22.9886 103.638 20.2629 106.999 20.2629C110.363 20.2629 113.088 22.9886 113.088 26.3506C113.088 29.7125 110.363 32.4392 106.999 32.4392ZM106.999 16.6098C101.62 16.6098 97.2596 20.9703 97.2596 26.3506C97.2596 31.7299 106.999 46.441 106.999 46.441C106.999 46.441 116.74 31.7299 116.74 26.3506C116.74 20.9703 112.381 16.6098 106.999 16.6098Z" fill="#D43E3A"/>
<path d="M236.222 153.473C232.106 153.473 228.769 150.136 228.769 146.02C228.769 141.904 232.106 138.568 236.222 138.568C240.338 138.568 243.674 141.904 243.674 146.02C243.674 150.136 240.338 153.473 236.222 153.473ZM236.222 134.097C229.636 134.097 224.298 139.434 224.298 146.02C224.298 152.605 236.222 170.614 236.222 170.614C236.222 170.614 248.146 152.605 248.146 146.02C248.146 139.434 242.808 134.097 236.222 134.097Z" fill="#ABDBE6"/>
<path d="M166.555 78.9268C170.542 68.9587 176.238 61.1835 180.625 67.5634C185.011 73.9432 163.819 106.871 163.819 106.871C163.819 106.871 162.566 88.8959 166.555 78.9268Z" fill="#ECB49F"/>
<path d="M111.514 255.477L140.038 254.801C139.303 250.95 140.585 219.161 146.596 209.931C153.608 199.161 162.081 184.545 165.294 170.185C168.509 155.826 113.581 141.466 98.6813 175.057C83.7815 208.649 101.018 236.855 101.018 236.855L111.514 255.477Z" fill="#ECB49F"/>
<path d="M109.627 209.181H115.119V185.033H109.627V209.181Z" fill="#E29871"/>
<path d="M168.999 182.566C168.999 183.929 167.908 185.033 166.563 185.033H95.9364C94.5908 185.033 93.4999 183.929 93.4999 182.566V63.3632C93.4999 62.0004 94.5908 60.8963 95.9364 60.8963H166.563C167.908 60.8963 168.999 62.0004 168.999 63.3632V182.566Z" fill="#2E3054"/>
<path d="M93.4999 125.678V63.3633C93.4999 62.0004 94.5908 60.8963 95.9364 60.8963H166.563C167.908 60.8963 168.999 62.0004 168.999 63.3633V66.4624V69.0622V82.9351L164.534 87.456V79.8289V70.2038C164.534 69.118 163.573 68.2372 162.387 68.2372H100.113C98.9259 68.2372 97.9659 69.118 97.9659 70.2038V121.939C97.698 121.901 97.422 121.883 97.1369 121.883C96.9014 121.883 96.6609 121.896 96.4133 121.922C96.4133 121.922 96.389 121.917 96.3443 121.917C96.0247 121.917 94.6466 122.134 93.4999 125.678Z" fill="#585976"/>
<path d="M164.534 165.245C164.534 166.33 163.573 167.211 162.387 167.211H100.113C98.9259 167.211 97.9659 166.33 97.9659 165.245V70.2038C97.9659 69.118 98.9259 68.2372 100.113 68.2372H162.387C163.573 68.2372 164.534 69.118 164.534 70.2038V165.245Z" fill="white"/>
<path d="M157.986 131.778C157.986 134.169 145.105 136.107 129.216 136.107C113.325 136.107 100.444 134.169 100.444 131.778C100.444 129.388 113.325 127.45 129.216 127.45C145.105 127.45 157.986 129.388 157.986 131.778Z" fill="#727F9C"/>
<path d="M118.544 127.226C122.628 120.679 123.237 107.922 122.879 100.093C122.762 97.5356 120.428 88.3692 116.743 88.7609C113.235 89.1344 114.564 98.4875 115.052 100.724C114.61 99.3704 113.228 97.8391 111.524 97.2596C108.428 96.2083 107.027 96.666 106.432 99.2962C105.514 103.358 109.534 106.949 111.414 110.216C109.67 108.742 106.43 107.732 105.489 110.702C104.548 113.671 118.544 127.226 118.544 127.226Z" fill="#5FA469"/>
<path d="M136.409 118.205C135.304 111.698 139.805 102.628 143.23 97.423C144.349 95.7233 150.093 90.5703 153.273 92.6516C156.302 94.6344 151.394 100.411 150.067 101.707C151.003 100.995 152.86 100.621 154.634 101.062C157.852 101.863 157.12 102.211 156.617 104.313C155.841 107.555 152.598 108.7 149.603 110.022C151.766 109.866 155.099 110.767 154.775 113.272C154.451 115.776 136.409 118.205 136.409 118.205Z" fill="#5FA469"/>
<path d="M137.81 109.94C137.376 105.637 136.246 101.084 137.357 96.8405C137.661 95.6806 139.855 90.5611 143.147 92.0325C145.794 93.2127 143.731 96.6295 143.598 98.1049C143.239 102.074 141.504 106.255 139.284 109.78L137.81 109.94Z" fill="#378355"/>
<path d="M139.359 115.643C139.84 111.344 139.693 106.656 141.671 102.74C142.211 101.67 145.433 97.1277 148.342 99.2577C150.682 100.968 147.946 103.875 147.506 105.289C146.322 109.093 143.746 112.816 140.836 115.797L139.359 115.643Z" fill="#378355"/>
<path d="M119.466 118.65C116.362 115.636 112.566 112.882 110.683 108.92C110.167 107.838 108.549 102.509 112.015 101.512C114.799 100.712 115.422 104.653 116.27 105.868C118.553 109.134 119.918 113.451 120.492 117.577L119.466 118.65Z" fill="#378355"/>
<path d="M154.93 129.297C154.897 115.247 143.512 103.88 129.47 103.88C115.428 103.88 104.043 115.247 104.011 129.281C104.198 131.46 115.521 133.172 129.47 133.172C143.419 133.172 154.742 131.46 154.922 129.341L154.93 129.297Z" fill="#596A83"/>
<path d="M132.912 101.843C132.912 103.437 131.619 104.727 130.027 104.727C128.432 104.727 127.14 103.437 127.14 101.843C127.14 100.249 128.432 98.9573 130.027 98.9573C131.619 98.9573 132.912 100.249 132.912 101.843Z" fill="#596A83"/>
<path d="M116.955 130.19C116.955 130.19 112.202 129.85 108.809 129.171C109.148 121.702 111.524 108.802 127.48 106.426C127.48 106.426 117.294 112.197 116.955 130.19Z" fill="#ACB5C1"/>
<path d="M97.8289 255.882L112.44 255.341L108.42 237.129V199.588C119.981 179.189 104.594 165.77 102.257 161.923C99.9193 158.078 102.063 143.973 103.036 134.572C103.917 126.083 101.381 121.408 96.4133 121.922C96.4133 121.922 93.4928 121.408 92.3248 131.665C91.1558 141.923 88.2343 150.299 84.6572 156.082C82.4065 159.723 74.8911 176.539 81.6109 192.694C88.3307 208.849 97.8289 255.882 97.8289 255.882Z" fill="#ECB49F"/>
<path d="M169.804 107.573C169.804 107.573 181.841 113.707 178.531 123.349C175.22 132.991 165.893 143.801 161.38 142.924C156.866 142.047 159.647 136.821 162.354 131.856C165.062 126.889 168.601 121.889 168.601 121.889L169.804 107.573Z" fill="#ECB49F"/>
<path d="M163.844 129.249C166.169 125.336 168.533 121.985 168.6 121.891C168.6 121.891 168.6 121.89 168.601 121.89C168.601 121.889 168.601 121.889 168.601 121.889L169.805 107.573C169.841 107.592 173.977 109.713 176.721 113.405C173.432 120.767 167.736 127.847 163.844 129.249Z" fill="#E29871"/>
<path d="M169.491 92.7702C169.491 92.7702 181.177 98.9056 177.963 108.547C174.749 118.187 165.694 128.998 161.31 128.122C156.928 127.244 159.627 122.019 162.257 117.053C164.886 112.085 168.323 107.087 168.323 107.087L169.491 92.7702Z" fill="#ECB49F"/>
<path d="M93.5577 135.496C92.8433 135.496 92.3248 135.366 92.3248 135.366C92.3248 135.366 92.9083 125.433 94.6608 123.679C94.6608 123.679 98.1668 127.186 97.5833 131.86C97.1936 134.977 94.9855 135.496 93.5577 135.496Z" fill="#E29871"/>
<path d="M137.184 176.094C137.184 179.38 134.519 182.043 131.234 182.043C127.949 182.043 125.286 179.38 125.286 176.094C125.286 172.809 127.949 170.145 131.234 170.145C134.519 170.145 137.184 172.809 137.184 176.094Z" fill="#596A83"/>
<path d="M135.756 176.094C135.756 178.591 133.731 180.616 131.234 180.616C128.737 180.616 126.713 178.591 126.713 176.094C126.713 173.598 128.737 171.573 131.234 171.573C133.731 171.573 135.756 173.598 135.756 176.094Z" fill="#2E3054"/>
<path d="M162.387 68.2372H100.113C98.9259 68.2372 97.9659 69.118 97.9659 70.2039V79.8289H164.534V70.2039C164.534 69.118 163.573 68.2372 162.387 68.2372Z" fill="#FFD72D"/>
<path d="M149.38 155.145C149.38 157.256 147.669 158.966 145.56 158.966H115.313C113.203 158.966 111.493 157.256 111.493 155.145V149.096C111.493 146.986 113.203 145.275 115.313 145.275H145.56C147.669 145.275 149.38 146.986 149.38 149.096V155.145Z" fill="#D43E3A"/>
<path d="M118.033 154.848C118.033 155.679 118.384 156.16 119.111 156.16C119.851 156.16 120.189 155.679 120.189 154.848V150.041C120.189 149.223 119.851 148.729 119.111 148.729C118.384 148.729 118.033 149.223 118.033 150.041V154.848ZM117.032 150.093C117.032 148.702 117.721 147.806 119.111 147.806C120.514 147.806 121.203 148.702 121.203 150.093V154.796C121.203 156.173 120.514 157.082 119.111 157.082C117.721 157.082 117.032 156.173 117.032 154.796V150.093Z" fill="white"/>
<path d="M124.255 152.184C125.059 152.184 125.54 151.925 125.54 150.937V150.067C125.54 149.248 125.241 148.82 124.488 148.82H123.501V152.184H124.255ZM124.514 147.898C125.943 147.898 126.541 148.625 126.541 149.976V150.717C126.541 151.717 126.19 152.34 125.41 152.587C126.241 152.834 126.553 153.509 126.553 154.484V155.9C126.553 156.303 126.566 156.679 126.736 156.991H125.709C125.592 156.731 125.54 156.498 125.54 155.887V154.458C125.54 153.431 125.059 153.107 124.215 153.107H123.501V156.991H122.487V147.898H124.514Z" fill="white"/>
<path d="M130.047 156.069C130.774 156.069 131.126 155.614 131.126 154.783V150.106C131.126 149.275 130.774 148.82 130.034 148.82H128.943V156.069H130.047ZM130.06 147.898C131.476 147.898 132.125 148.755 132.125 150.157V154.743C132.125 156.134 131.476 156.991 130.06 156.991H127.929V147.898H130.06Z" fill="white"/>
<path d="M136.632 151.925V152.834H134.41V156.069H137.138V156.991H133.397V147.898H137.138V148.82H134.41V151.925H136.632Z" fill="white"/>
<path d="M140.163 152.184C140.969 152.184 141.45 151.925 141.45 150.937V150.067C141.45 149.248 141.15 148.82 140.396 148.82H139.41V152.184H140.163ZM140.423 147.898C141.852 147.898 142.449 148.625 142.449 149.976V150.717C142.449 151.717 142.099 152.34 141.32 152.587C142.151 152.834 142.462 153.509 142.462 154.484V155.9C142.462 156.303 142.476 156.679 142.644 156.991H141.618C141.501 156.731 141.45 156.498 141.45 155.887V154.458C141.45 153.431 140.969 153.107 140.124 153.107H139.41V156.991H138.396V147.898H140.423Z" fill="white"/>
<path d="M101.977 71.9533H110.275V70.8097H101.977V71.9533Z" fill="#FFEB96"/>
<path d="M101.977 74.8088H110.275V73.6664H101.977V74.8088Z" fill="#FFEB96"/>
<path d="M101.977 77.6654H110.275V76.5231H101.977V77.6654Z" fill="#FFEB96"/>
<path d="M158.256 71.3516C157.759 71.3516 157.355 70.9477 157.355 70.4494C157.355 69.9512 157.759 69.5473 158.256 69.5473C158.755 69.5473 159.159 69.9512 159.159 70.4494C159.159 70.9477 158.755 71.3516 158.256 71.3516Z" fill="#FFEB96"/>
<path d="M158.256 74.4171C157.759 74.4171 157.355 74.0143 157.355 73.516C157.355 73.0178 157.759 72.6139 158.256 72.6139C158.755 72.6139 159.159 73.0178 159.159 73.516C159.159 74.0143 158.755 74.4171 158.256 74.4171Z" fill="#FFEB96"/>
<path d="M158.256 77.4838C157.759 77.4838 157.355 77.0799 157.355 76.5817C157.355 76.0834 157.759 75.6796 158.256 75.6796C158.755 75.6796 159.159 76.0834 159.159 76.5817C159.159 77.0799 158.755 77.4838 158.256 77.4838Z" fill="#FFEB96"/>
<path d="M63.7367 150.68H61.8127C56.0397 149.238 58.9267 129.035 60.0095 122.902C60.9065 117.815 60.8121 109.506 60.7533 106.819H59.9212C52.3398 106.181 58.1524 79.4504 58.1524 79.4504H59.704C59.4666 88.8299 58.1524 97.5904 60.0693 98.3677C60.1373 98.3962 60.2033 98.4094 60.2652 98.4094C61.9507 98.4094 61.5093 88.5072 61.9253 79.4504H63.623C64.0452 88.6199 63.7276 98.387 65.3563 98.386C65.3959 98.386 65.4375 98.3799 65.4791 98.3677C67.2468 97.8725 66.0808 88.8299 65.8444 79.4504H67.396C67.396 79.4504 73.2086 106.181 65.6272 106.819H64.7951C64.7373 109.506 64.6419 117.815 65.5399 122.902C66.6217 129.035 69.5087 149.238 63.7367 150.68Z" fill="#8AA0B5"/>
<path d="M207.882 146.192C202.089 146.192 204.868 125.989 205.73 119.856C205.833 119.132 205.099 111.526 205.099 111.526C205.099 111.526 201 108.076 200.802 101.496C200.324 85.7359 206.532 71.8863 208.569 71.864C209.699 71.8741 209.729 112.934 209.699 114.083C209.398 125.853 213.673 146.192 207.882 146.192Z" fill="#8AA0B5"/>
<path d="M181.891 143.229C181.891 143.229 205.722 145.889 212.745 168.553L208.098 178.872C208.098 178.872 186.2 151.25 181.891 143.229Z" fill="#E7A588"/>
<path d="M202.688 166.379C197.851 156.445 192.704 150.147 187.972 146.172C187.872 145.885 187.781 145.616 187.697 145.366C187.697 145.366 198.063 149.541 204.212 166.363C204.144 166.362 204.077 166.362 204.009 166.362C203.577 166.362 203.136 166.368 202.688 166.379Z" fill="#DD8B61"/>
<path d="M170.364 139.611C170.364 139.611 188.893 135.95 203.834 168.816L194.468 174.839C194.468 174.839 174.671 147.632 170.364 139.611Z" fill="#E7A588"/>
<path d="M192.114 167.231C186.042 153.767 179.595 145.774 174.026 141.031C173.92 140.728 173.823 140.444 173.735 140.18C173.735 140.18 186.518 145.328 192.114 167.231Z" fill="#DD8B61"/>
<path d="M159.101 134.122C159.101 134.122 177.281 133.247 192.734 168.628L180.872 171.969C180.872 171.969 163.555 142.759 159.101 134.122Z" fill="#E7A588"/>
<path d="M179.38 167.881C178.898 166.854 178.406 165.866 177.491 164.077C173.426 155.279 164.852 142.262 160.837 136.326C166.365 140.426 175.138 149.542 179.38 167.881Z" fill="#DD8B61"/>
<path d="M173.604 241.776C177.732 243.894 190.514 246.555 194.759 254.601L200.136 272.559C200.136 272.559 203.789 274.277 219.08 276.618C238.73 279.627 246.815 268.5 246.815 268.5L232.136 240.86C232.297 215.11 212.745 168.553 212.745 168.553C211.254 163.796 180.378 167.633 181.24 172.033C179.465 168.028 179.333 167.685 177.491 164.077C172.079 152.364 158.674 133.169 158.674 133.169C153.067 124.137 150.393 122.028 146.58 123.676C142.768 125.32 148.32 133.284 149.807 138.04C149.807 138.04 169.377 173.461 173.07 194.99C176.22 213.36 173.99 212.914 170.664 212.468C170.092 212.392 169.487 212.315 168.872 212.334C164.679 212.466 163.021 206.975 154.663 196.05C144.886 182.201 139.84 189.361 139.84 189.361C157.462 231.344 161.219 235.413 173.604 241.776Z" fill="#E7A588"/>
<path d="M144.728 199.963L140.399 190.584C140.399 190.584 146.893 191.666 149.057 197.799L144.728 199.963Z" fill="#DD8B61"/>
</svg>
